<?xml version="1.0" standalone="no"?>
<!DOCTYPE svg PUBLIC "-//W3C//DTD SVG 20010904//EN"
 "http://www.w3.org/TR/2001/REC-SVG-20010904/DTD/svg10.dtd">
<svg version="1.0" xmlns="http://www.w3.org/2000/svg"
 width="2000.000000pt" height="2000.000000pt" viewBox="0 0 2000.000000 2000.000000"
 preserveAspectRatio="xMidYMid meet">

<g transform="translate(0.000000,2000.000000) scale(0.100000,-0.100000)"
fill="#000000" stroke="none">
<path d="M0 10000 l0 -10000 10000 0 10000 0 0 2435 c0 1617 -3 2435 -10 2435
-5 0 -10 -4 -10 -9 0 -5 -37 -48 -83 -96 l-83 -86 -12 26 c-26 56 41 482 95
605 40 92 87 180 95 180 5 0 8 48 7 108 l-1 107 -12 -55 c-7 -30 -27 -85 -44
-123 -18 -37 -32 -71 -32 -76 0 -6 -5 -13 -11 -17 -14 -8 -5 88 17 184 28 125
12 125 -41 0 -21 -51 -42 -97 -47 -102 -4 -6 -17 -1 -30 11 -13 11 -31 23 -41
26 -15 6 -17 3 -11 -16 3 -12 15 -39 25 -59 11 -21 19 -48 19 -62 0 -32 -101
-365 -129 -428 -12 -27 -28 -48 -35 -48 -17 0 -37 45 -42 95 -10 109 -22 179
-31 182 -6 2 -24 15 -40 29 -32 28 -51 30 -79 9 -42 -32 -49 -22 -72 104 -12
66 -22 141 -23 168 0 26 -4 68 -8 93 -8 44 -9 44 -11 10 -3 -43 -6 -161 -9
-425 -2 -135 -6 -190 -12 -170 -5 17 -22 145 -39 285 -29 248 -60 498 -80 650
-6 41 -17 158 -26 259 -8 102 -17 187 -19 190 -2 4 -6 52 -10 109 -3 56 -12
160 -20 231 -7 71 -13 135 -12 143 3 34 -42 278 -55 298 -6 10 -7 -127 -3
-375 4 -214 8 -505 10 -645 6 -365 14 -626 25 -770 38 -486 52 -647 66 -735
23 -143 30 -319 12 -311 -7 3 -20 9 -30 12 -19 7 -30 41 -22 71 3 11 -1 32 -9
44 -17 27 -38 129 -30 143 4 5 1 6 -4 3 -10 -6 -22 21 -29 63 -18 108 -27 147
-35 154 -6 6 -9 3 -9 -10 -1 -26 -11 -98 -15 -102 -2 -2 -9 23 -15 55 -17 82
-17 83 -38 83 -15 0 -21 -15 -35 -87 -9 -49 -19 -110 -22 -138 -4 -27 -13 -86
-21 -130 -8 -44 -18 -114 -24 -155 -34 -265 -60 -362 -60 -227 0 53 -3 67 -15
67 -8 0 -15 -9 -15 -20 0 -11 -6 -20 -13 -20 -14 0 -37 73 -37 115 0 14 -13
65 -29 113 -16 48 -38 130 -50 182 -12 52 -34 140 -49 195 l-26 100 -9 -42
c-7 -29 -4 -85 8 -185 24 -204 30 -305 16 -293 -6 6 -15 33 -20 60 -6 28 -24
115 -41 195 -17 80 -44 210 -60 290 -26 133 -36 180 -61 310 -4 25 -18 86 -29
135 -12 50 -24 105 -27 122 -3 18 -11 33 -17 33 -7 0 -19 19 -26 43 -8 23 -18
48 -23 55 -6 7 -10 27 -9 45 0 19 -7 40 -19 54 -13 13 -19 31 -17 49 2 21 -2
30 -14 32 -10 2 -18 -1 -18 -7 0 -6 -10 -11 -22 -11 -17 0 -19 -3 -10 -12 7
-7 12 -20 12 -29 0 -10 5 -19 12 -21 7 -3 9 -12 4 -24 -7 -18 -8 -18 -26 6
l-20 25 4 -42 c3 -33 1 -43 -11 -43 -9 0 -12 -6 -9 -17 3 -10 8 -52 11 -93 3
-41 10 -97 15 -125 5 -27 18 -113 30 -190 12 -77 28 -180 36 -230 7 -49 21
-135 29 -190 8 -55 26 -163 40 -240 21 -111 53 -374 55 -442 0 -6 -12 -26 -26
-43 -15 -17 -32 -48 -39 -68 -28 -79 -51 -43 -91 138 -8 41 -23 91 -32 110
l-16 35 -8 -50 c-4 -27 -10 -141 -14 -252 -4 -112 -10 -203 -14 -203 -13 0
-56 25 -74 43 -10 9 -30 17 -45 17 -15 0 -32 5 -39 12 -19 19 -25 2 -13 -33
12 -35 15 -82 5 -92 -11 -11 -84 35 -106 66 -18 25 -22 27 -35 14 -13 -13 -13
-17 5 -35 26 -26 36 -75 22 -101 -6 -12 -14 -21 -18 -21 -4 0 -31 18 -61 40
-29 22 -57 40 -61 40 -11 0 -48 -46 -55 -69 -5 -15 -63 -51 -83 -51 -4 0 -16
13 -25 30 -16 26 -16 38 -7 89 8 46 8 65 -1 80 -12 19 -13 18 -48 -4 -20 -13
-49 -27 -64 -31 -16 -3 -35 -17 -43 -29 -13 -20 -18 -22 -44 -12 -24 9 -41 8
-87 -7 -32 -11 -67 -25 -79 -32 -31 -19 -69 -7 -72 22 -4 47 -20 64 -61 64
-40 0 -66 20 -72 54 -2 11 -9 21 -15 23 -19 6 -79 -42 -112 -92 -27 -41 -32
-56 -27 -86 4 -25 2 -39 -9 -48 -8 -7 -18 -26 -21 -43 -7 -28 -24 -51 -84
-116 -23 -25 -24 -25 -38 -6 -28 38 -25 60 27 184 33 78 48 126 42 132 -11 11
-62 -56 -62 -79 0 -7 -9 -18 -20 -25 -11 -7 -20 -19 -20 -26 0 -21 -40 -73
-51 -67 -17 11 -9 53 16 83 14 17 25 35 25 41 0 6 15 28 34 48 18 21 45 61 59
88 28 55 49 85 185 266 52 68 101 137 109 153 l15 29 -29 -21 c-47 -34 -217
-222 -270 -298 -38 -53 -163 -198 -181 -208 -9 -5 -30 -10 -47 -11 -16 -1 -40
-5 -52 -9 -18 -6 -20 -4 -16 12 6 26 -24 37 -44 16 -12 -11 -25 -14 -47 -9
-17 4 -59 7 -93 6 -57 -1 -63 0 -63 18 0 11 7 36 16 55 31 63 -6 95 -58 51
-26 -22 -37 -25 -67 -20 -20 4 -40 11 -46 16 -12 12 -55 12 -55 0 0 -5 -17
-19 -37 -31 -31 -18 -43 -20 -73 -12 -19 5 -42 10 -50 11 -8 0 -44 6 -78 12
-48 8 -71 8 -92 -1 -16 -6 -41 -11 -57 -10 -60 4 -73 0 -79 -25 -7 -29 -26
-36 -107 -41 -53 -3 -64 -7 -97 -39 -19 -19 -40 -35 -45 -35 -5 0 -37 30 -72
66 -60 63 -83 72 -83 36 0 -10 -7 -28 -16 -40 -15 -22 -21 -23 -78 -17 -70 8
-111 -4 -121 -34 -3 -12 -18 -24 -33 -27 -15 -4 -48 -18 -74 -33 -40 -22 -51
-24 -65 -13 -10 6 -33 20 -51 29 -30 16 -33 16 -46 -2 -8 -12 -19 -16 -31 -12
-14 6 -16 14 -11 42 5 27 3 36 -11 43 -28 15 -60 -3 -68 -37 -7 -32 -36 -43
-51 -20 -3 6 -17 8 -33 4 -37 -9 -167 -25 -222 -28 -25 -1 -54 -8 -63 -16 -25
-21 -16 -53 19 -64 17 -5 32 -11 34 -13 9 -8 -23 -34 -40 -34 -12 0 -19 -7
-19 -20 0 -20 10 -25 85 -35 22 -2 65 -10 95 -16 30 -6 88 -12 128 -13 57 -1
76 -5 86 -18 18 -25 38 -22 66 7 24 26 71 33 100 15 12 -8 13 -16 2 -56 -7
-26 -11 -48 -9 -50 2 -2 21 -10 43 -17 48 -17 57 -42 17 -50 -20 -4 -41 3 -76
24 -26 16 -65 33 -88 38 -37 8 -41 7 -51 -15 -8 -18 -19 -24 -43 -24 -18 0
-46 -5 -63 -11 -27 -9 -31 -15 -26 -35 7 -28 -2 -30 -53 -9 -27 11 -44 13 -63
6 -45 -17 -111 -22 -126 -10 -37 31 9 54 57 29 21 -12 89 -3 89 10 0 13 -65
31 -83 24 -10 -3 -28 3 -43 15 -20 16 -35 20 -59 15 -19 -3 -35 -1 -39 5 -11
17 -35 13 -66 -9 -16 -11 -42 -23 -58 -26 -27 -6 -33 -2 -57 36 -22 34 -30 41
-48 35 -61 -18 -97 -18 -103 0 -4 10 -2 26 4 36 16 25 15 39 -2 39 -25 0 -68
42 -63 61 10 36 -18 43 -76 19 -43 -18 -60 -21 -83 -13 -41 14 -37 42 13 78
23 16 42 35 42 41 1 10 -13 12 -96 13 -18 0 -43 7 -56 16 -25 16 -37 14 -97
-13 -19 -9 -57 -16 -85 -16 -44 -1 -50 1 -47 18 3 16 1 18 -10 9 -17 -14 -118
-5 -119 11 -1 6 -1 16 0 22 1 6 -8 19 -19 29 -17 16 -24 16 -65 5 -49 -14
-105 -4 -153 27 -18 11 -39 13 -84 8 -67 -8 -82 1 -71 42 6 26 10 25 -99 27
-50 1 -82 6 -90 14 -15 16 -23 9 142 119 272 180 485 372 762 688 122 138 149
180 137 212 -4 12 -4 25 1 28 11 7 40 64 40 79 0 6 7 25 16 41 9 17 37 71 62
120 24 50 50 97 57 105 7 8 15 45 18 82 3 37 12 76 18 87 10 15 10 23 1 34 -9
10 -8 18 3 33 8 10 15 25 15 33 0 20 87 199 121 249 16 24 29 49 29 56 0 7 14
28 30 46 17 18 30 40 30 49 0 12 3 12 12 3 7 -7 21 -12 31 -12 20 0 77 48 77
65 0 6 11 22 25 37 14 15 25 36 25 47 0 11 5 23 10 26 6 3 10 -1 10 -10 0 -12
5 -15 16 -11 9 3 17 6 19 6 2 0 9 16 15 35 7 22 18 35 29 35 9 0 26 6 37 14
16 13 17 18 7 35 -18 30 -16 39 10 43 18 2 22 9 22 38 0 27 5 37 23 45 22 9
23 15 21 90 -2 92 7 121 41 138 37 18 48 87 22 131 -17 29 -18 36 -6 48 8 7
16 29 18 48 2 19 4 38 5 43 2 13 34 7 53 -10 10 -9 31 -16 48 -15 16 0 32 -4
35 -9 4 -5 15 -9 27 -9 16 0 19 5 15 21 -4 15 -2 19 8 15 8 -3 26 9 41 27 22
26 25 37 20 73 -3 27 -1 44 6 46 15 5 31 91 29 158 0 30 6 79 16 108 13 44 14
60 5 86 -15 40 -15 76 -2 76 5 0 16 16 24 35 8 19 28 54 44 77 64 94 91 231
69 346 -6 30 -5 42 3 42 18 0 49 44 40 55 -13 15 14 100 31 100 8 0 23 -25 34
-60 21 -63 43 -79 67 -50 7 9 21 24 31 33 9 9 17 30 17 47 0 21 8 39 26 54 15
13 23 28 20 37 -3 9 -6 20 -6 25 0 4 -14 15 -30 24 -17 9 -30 24 -30 34 0 20
43 71 61 71 21 0 -1 54 -34 81 -28 23 -31 31 -28 73 1 26 -3 54 -10 62 -6 8
-7 14 -2 14 10 0 33 43 33 62 0 5 -6 8 -14 5 -8 -3 -21 4 -30 18 -15 22 -14
26 19 65 18 22 37 50 41 63 6 21 21 37 36 37 3 0 9 -18 13 -40 14 -84 45 -51
51 55 3 63 8 82 30 110 31 41 38 42 84 12 58 -38 100 -53 110 -37 19 30 -17
57 -136 101 -52 20 -58 26 -81 75 -13 30 -28 54 -33 54 -10 0 -5 165 5 192 4
10 15 18 24 18 20 0 44 59 43 103 0 21 5 31 19 34 20 6 26 37 9 48 -5 3 -9 20
-8 38 0 18 -2 47 -7 65 -7 32 -6 33 15 20 31 -19 46 6 54 90 16 154 36 183
126 181 33 -1 63 1 67 5 4 3 -1 22 -10 41 -22 46 -76 73 -111 57 -21 -9 -26
-8 -31 8 -3 11 -1 29 6 41 10 19 8 25 -9 38 -11 9 -23 26 -27 39 -7 23 -20 29
-30 12 -3 -5 -15 -10 -25 -10 -18 0 -18 2 -4 51 9 31 13 66 9 85 -6 32 -8 34
-46 34 -47 0 -95 -22 -103 -48 -3 -9 4 -42 15 -72 12 -30 25 -86 29 -125 8
-76 43 -187 66 -206 8 -6 14 -28 14 -48 0 -20 4 -41 9 -47 5 -5 12 -27 16 -49
l7 -40 -24 21 c-12 12 -30 24 -39 27 -10 3 -19 22 -23 51 -7 44 -26 56 -26 16
0 -47 -39 -34 -80 28 -36 54 -26 81 15 42 20 -19 30 -22 43 -14 37 24 22 112
-30 177 -16 19 -23 42 -24 78 -1 30 -7 57 -17 66 -16 16 -19 5 -29 -121 -2
-16 -8 -31 -15 -33 -15 -5 -21 96 -10 162 6 34 5 62 -3 90 -7 22 -14 71 -16
109 -2 61 1 78 30 140 19 39 39 87 45 108 7 20 18 39 26 42 18 7 21 129 4 173
-14 37 -30 191 -23 220 12 46 78 10 74 -39 -9 -114 9 -218 37 -218 13 0 15 8
10 45 -4 25 -2 47 3 50 17 10 11 63 -7 74 -15 8 -16 13 -6 29 6 11 9 29 7 40
-3 11 1 33 10 50 21 40 20 49 -5 57 -11 4 -30 27 -42 51 -21 43 -23 45 -61 42
-39 -3 -41 -1 -53 36 -7 21 -22 51 -34 67 -11 15 -21 44 -23 62 -2 19 -10 45
-19 58 -10 13 -17 31 -17 40 0 24 -32 96 -37 82 -2 -6 1 -35 7 -65 6 -29 15
-78 21 -108 5 -30 11 -65 14 -78 5 -21 3 -23 -17 -16 -33 10 -37 20 -64 149
-1 6 -11 41 -23 79 -11 37 -21 81 -21 96 0 15 -6 33 -14 39 -7 6 -21 51 -30
101 -10 49 -27 111 -37 137 l-20 48 7 -85 c9 -107 9 -101 -1 -367 -7 -197 -6
-223 7 -223 9 0 21 7 28 15 9 10 31 15 74 15 82 0 119 -27 120 -89 1 -60 -15
-69 -90 -46 -32 10 -78 29 -102 42 -48 27 -56 21 -50 -39 2 -24 8 -33 20 -32
13 1 16 -4 12 -25 -10 -47 47 -68 124 -45 26 8 29 -6 7 -44 -8 -15 -20 -40
-26 -57 l-10 -30 -27 33 c-15 18 -35 32 -44 32 -9 0 -30 16 -46 36 -29 35 -34
47 -51 124 -4 19 -12 34 -18 33 -6 -1 -24 23 -39 53 -22 42 -36 57 -56 61 -47
9 -90 104 -66 143 7 11 23 20 36 20 40 0 57 33 54 103 -4 57 -13 76 -36 77 -4
0 -5 -8 -1 -17 4 -10 9 -24 12 -32 5 -10 -1 -12 -23 -7 -46 10 -57 -4 -50 -62
6 -51 1 -82 -14 -82 -12 0 -22 31 -25 83 -2 26 -8 53 -13 60 -6 7 -13 41 -16
76 -3 36 -10 69 -16 75 -5 5 -10 27 -10 48 0 22 -9 57 -20 79 -12 22 -26 66
-31 97 -14 78 -38 149 -59 174 -17 21 -17 17 -16 -93 2 -72 9 -139 20 -182 14
-55 16 -77 8 -110 -26 -102 -51 -343 -35 -335 5 2 20 10 35 17 37 19 75 7 94
-30 15 -30 15 -32 -12 -60 -17 -18 -38 -29 -54 -29 -37 0 -50 -18 -50 -70 0
-25 -5 -61 -10 -80 -6 -19 -13 -85 -17 -146 l-5 -111 25 -7 c21 -5 27 -14 32
-44 9 -55 23 -82 41 -82 11 0 15 8 14 28 -3 44 -1 52 17 52 9 0 24 7 34 16 10
9 23 13 28 9 18 -10 12 -25 -9 -25 -30 0 -25 -11 22 -51 30 -26 40 -41 34 -54
-5 -14 -14 -17 -49 -12 -23 2 -49 6 -57 8 -19 5 -16 -42 6 -85 8 -16 14 -34
14 -41 0 -14 -32 -45 -48 -45 -16 0 -25 36 -13 57 13 26 -22 74 -40 56 -10
-10 -10 -21 1 -54 13 -37 12 -43 -3 -54 -17 -12 -17 -15 -1 -49 17 -34 17 -38
1 -71 -9 -20 -17 -50 -17 -68 0 -34 -24 -70 -52 -80 -21 -7 -34 11 -19 26 16
16 14 42 -5 58 -16 13 -16 37 0 107 3 13 1 31 -3 40 -5 9 -18 38 -29 63 l-21
47 24 5 c13 2 26 -1 28 -7 3 -6 16 0 32 15 20 19 25 32 20 48 -6 20 -7 20 -29
-6 -21 -24 -26 -26 -41 -13 -9 7 -14 21 -12 31 3 13 -7 19 -47 29 -67 16 -112
11 -108 -12 3 -21 -9 -23 -26 -6 -9 9 -15 9 -24 0 -7 -7 -22 -12 -33 -12 -13
0 -27 -11 -36 -27 -19 -39 -26 -42 -65 -30 -37 11 -50 33 -33 53 18 22 -9 26
-121 21 -76 -4 -100 -2 -100 8 0 15 80 115 92 115 4 0 8 5 8 10 0 6 -7 10 -14
10 -8 0 -35 13 -59 30 -52 35 -131 70 -158 70 -13 0 -19 7 -19 21 0 18 4 20
23 14 43 -14 99 -17 110 -6 8 8 4 18 -14 38 -44 49 -100 134 -115 176 -16 46
-17 57 -4 77 7 12 12 12 34 0 34 -18 41 -9 21 30 -20 39 -32 130 -17 130 11 0
16 -12 27 -70 4 -19 12 -41 17 -47 6 -7 8 -23 4 -35 -6 -26 8 -83 35 -145 11
-24 19 -49 19 -57 0 -16 18 -31 26 -23 3 3 -4 42 -14 88 -11 46 -23 109 -27
139 -3 30 -12 78 -20 105 -18 66 -28 207 -13 181 6 -10 14 -44 18 -75 37 -274
92 -455 147 -480 21 -10 24 -9 19 6 -3 10 -14 50 -25 88 -37 126 -69 400 -121
1050 -20 242 -36 378 -39 329 0 -11 -6 -25 -13 -32 -8 -8 -8 -31 0 -94 7 -46
12 -119 12 -163 0 -44 4 -129 10 -190 14 -172 17 -368 4 -372 -6 -2 -19 16
-30 39 -10 23 -34 57 -51 75 -18 18 -33 37 -33 43 0 20 23 10 54 -25 18 -19
35 -32 38 -29 11 11 -13 61 -35 74 -20 11 -136 136 -158 171 -8 12 -10 12 -19
-1 -10 -16 -12 -14 -49 35 -24 32 -58 59 -166 132 -130 87 -275 215 -275 243
0 26 -25 86 -35 85 -5 0 -9 -17 -7 -39 l3 -39 -25 17 c-30 19 -36 20 -36 5 0
-11 22 -37 111 -136 16 -18 73 -68 128 -111 150 -118 255 -245 280 -337 13
-49 14 -55 1 -55 -5 0 -21 21 -34 48 -30 56 -35 44 -6 -16 21 -43 26 -72 12
-72 -11 0 -42 34 -42 46 0 5 -12 39 -26 77 -21 56 -35 75 -76 108 -27 21 -54
39 -59 39 -15 0 -104 93 -101 105 1 7 -5 18 -13 25 -8 7 -15 19 -15 26 0 8 -6
14 -13 14 -8 0 -20 12 -27 28 -8 15 -37 59 -66 97 -75 103 -86 123 -74 127 5
1 -6 26 -25 53 -74 105 -85 126 -85 157 l0 32 30 -29 c16 -16 30 -34 30 -40 0
-7 9 -20 20 -30 28 -25 25 -3 -4 32 -32 38 -86 142 -86 164 0 29 -15 22 -31
-13 -20 -47 -44 -43 -44 7 0 34 -3 40 -22 43 -16 2 -25 12 -29 30 -3 15 -12
39 -20 54 -18 34 -18 48 4 65 12 10 13 16 5 19 -30 13 -63 47 -63 67 0 16 3
18 12 9 17 -17 29 -15 22 3 -9 22 9 18 29 -5 21 -25 37 -18 37 15 0 17 -6 25
-22 27 -17 2 -22 9 -20 26 2 13 -9 39 -27 64 -27 37 -29 44 -17 56 16 17 50 8
43 -11 -2 -6 13 -43 33 -82 21 -38 61 -115 90 -170 30 -55 60 -109 67 -120 12
-18 13 -17 7 15 -3 19 -37 97 -75 172 -38 75 -69 143 -69 150 0 7 30 24 68 37
37 13 74 30 84 38 14 13 20 12 47 -1 16 -9 39 -16 49 -16 26 0 139 -49 223
-95 106 -59 182 -124 309 -261 79 -86 118 -117 81 -66 -12 17 -26 34 -31 37
-6 4 -10 13 -10 22 0 10 15 2 48 -25 51 -43 92 -66 155 -88 52 -19 59 -11 10
12 -67 31 -151 93 -234 172 -76 73 -127 110 -85 63 11 -11 15 -21 9 -21 -5 0
-18 9 -28 20 -10 11 -13 20 -7 20 7 0 12 7 12 15 0 8 -4 15 -10 15 -5 0 -24
14 -42 32 -18 18 -34 26 -36 20 -5 -17 -27 -15 -42 3 -10 12 -9 15 6 15 17 0
17 1 2 17 -13 12 -20 14 -30 5 -17 -14 -34 -3 -40 23 -3 16 -11 19 -36 17 -27
-2 -34 2 -42 23 -8 21 -14 24 -34 19 -19 -4 -28 0 -42 21 -15 23 -22 26 -53
21 -20 -3 -30 -3 -23 0 24 11 11 22 -30 27 -55 5 -104 24 -148 57 -19 14 -47
32 -62 39 -36 19 -148 113 -161 136 -9 16 -6 17 22 12 39 -8 52 14 26 44 -18
19 -19 19 -42 -3 -21 -19 -26 -20 -50 -8 -39 19 -221 131 -323 199 -175 115
-390 371 -390 462 0 36 -2 39 -19 29 -22 -11 -23 -10 -81 80 -16 25 -37 56
-47 69 l-18 25 27 -18 c26 -17 28 -17 34 -1 4 9 1 33 -5 53 -7 21 -24 75 -37
122 -14 47 -30 89 -35 95 -17 17 -9 35 19 41 58 13 158 56 185 79 19 17 27 33
25 48 -5 33 -33 28 -31 -5 1 -16 1 -28 0 -28 -1 0 -35 -14 -76 -30 -40 -17
-91 -30 -112 -30 -38 0 -40 2 -65 58 -32 69 -41 102 -61 212 -8 47 -20 97 -26
112 -14 32 -49 52 -66 35 -8 -8 -14 -8 -23 2 -10 11 -10 14 0 18 18 7 15 27
-8 48 -10 9 -26 41 -34 69 -13 45 -13 58 0 106 8 30 14 67 14 82 0 15 5 30 10
33 6 3 10 14 10 23 0 9 7 30 15 46 8 15 15 37 15 47 0 17 31 33 56 28 30 -5
34 4 7 16 -17 7 -41 27 -54 44 -12 17 -26 31 -31 31 -12 0 -10 -38 2 -45 22
-14 8 -74 -40 -170 -27 -55 -50 -106 -50 -112 0 -24 -31 -13 -48 17 -13 23
-22 29 -38 25 -12 -2 -61 -5 -110 -6 -84 -1 -94 1 -177 40 -49 23 -93 41 -98
41 -6 0 -23 10 -39 22 -29 21 -49 20 -35 -2 3 -6 43 -28 88 -49 45 -22 92 -48
104 -60 26 -24 112 -49 122 -34 9 15 97 24 126 13 40 -15 88 -104 109 -202 3
-14 28 -51 56 -81 58 -64 70 -91 70 -161 0 -55 15 -150 31 -201 5 -16 21 -65
35 -109 14 -43 23 -81 20 -84 -9 -8 -165 47 -223 79 -29 16 -59 29 -67 29 -9
0 -42 24 -76 54 -66 59 -137 97 -220 115 -42 10 -62 21 -87 49 -28 32 -33 34
-39 18 -4 -11 -2 -21 6 -26 18 -11 3 -30 -25 -30 -13 0 -27 -4 -30 -10 -11
-18 -71 -11 -90 10 -16 17 -16 21 -2 35 22 22 28 19 21 -10 -4 -15 -2 -25 5
-25 6 0 8 6 5 14 -3 8 0 17 6 21 8 5 6 13 -7 27 -13 15 -15 22 -5 25 6 3 12
11 12 20 0 10 -6 12 -22 7 -21 -6 -21 -6 -6 18 26 40 29 121 3 112 -11 -5 -15
2 -15 26 0 24 4 31 15 26 17 -6 21 19 4 29 -7 5 -5 13 6 25 9 10 12 20 7 21
-18 7 -24 49 -8 55 14 5 14 8 1 21 -8 8 -15 23 -15 33 0 10 -10 20 -22 23 -21
6 -21 7 -4 26 10 11 21 36 26 56 l8 37 -24 -23 c-20 -19 -28 -21 -56 -13 -27
8 -34 15 -36 40 -2 25 2 33 24 43 25 11 30 10 45 -11 10 -12 21 -19 25 -15 4
4 0 15 -10 26 -15 17 -15 19 -1 25 9 3 34 6 56 6 35 0 39 3 39 24 0 35 -12 38
-55 16 -45 -23 -56 -19 -30 10 22 24 12 39 -15 23 -14 -10 -19 -9 -24 2 -3 9
-12 12 -22 8 -18 -7 -17 5 2 51 6 15 4 18 -8 14 -9 -4 -21 -1 -28 5 -10 9 -11
9 -6 0 5 -9 2 -11 -8 -7 -21 8 -28 32 -15 56 8 16 8 19 -1 13 -9 -5 -10 -2 -6
13 9 26 -3 74 -16 66 -6 -4 -7 2 -3 17 4 13 12 25 16 27 5 2 5 12 -1 21 -5 10
-6 21 -3 25 3 3 1 6 -5 6 -20 0 -14 50 6 51 10 0 6 4 -11 11 -22 8 -28 15 -25
36 2 18 10 28 27 32 19 4 21 7 10 17 -8 6 -23 13 -34 15 -12 2 -21 13 -23 26
-3 18 -8 22 -25 16 -19 -6 -20 -5 -9 9 11 13 10 17 -5 25 -10 6 -20 23 -21 39
-1 15 -7 30 -12 31 -6 2 -10 24 -10 49 l0 46 -31 -7 c-31 -6 -31 -5 -26 27 5
24 -3 49 -31 107 -21 41 -43 74 -49 73 -8 -2 -10 9 -6 35 3 20 2 34 -2 30 -10
-10 -64 52 -72 81 -3 14 -23 41 -45 61 -21 20 -38 44 -38 53 0 9 -10 19 -23
22 -12 3 -40 31 -62 61 -22 31 -45 52 -52 49 -8 -2 -19 10 -27 30 -11 26 -21
35 -39 35 -16 0 -28 8 -35 25 -6 14 -18 25 -26 25 -7 0 -17 12 -20 26 -4 15
-12 24 -19 21 -21 -8 -47 18 -50 49 -5 40 -17 64 -32 64 -16 0 -57 67 -46 75
15 9 5 70 -12 73 -17 3 -42 96 -31 114 4 6 2 8 -3 5 -9 -6 -21 15 -28 48 -7
33 -28 68 -45 72 -25 7 -22 28 10 71 14 18 25 48 26 65 2 32 -12 61 -26 52 -4
-2 -15 2 -25 9 -17 12 -17 15 -4 28 33 34 131 71 299 113 109 28 318 65 370
65 19 0 42 5 50 11 43 31 -401 -23 -592 -71 -357 -91 -814 -316 -1143 -563
-280 -209 -733 -685 -1030 -1082 -166 -223 -741 -1083 -837 -1255 -64 -113
-219 -424 -253 -505 -21 -49 -68 -160 -105 -245 -37 -85 -80 -191 -95 -235
-15 -44 -36 -95 -46 -113 -10 -18 -19 -42 -19 -53 0 -10 -4 -19 -10 -19 -5 0
-10 -8 -10 -19 0 -10 -8 -29 -18 -42 -11 -13 -22 -37 -26 -54 -10 -40 -49
-121 -53 -109 -7 20 160 494 266 757 299 743 631 1365 979 1837 375 507 723
862 1167 1191 331 245 697 438 1053 554 416 136 895 170 1322 94 452 -81 857
-254 1369 -586 443 -288 873 -711 1272 -1253 86 -116 277 -405 340 -513 19
-33 43 -73 53 -90 11 -18 38 -66 61 -107 61 -110 95 -171 115 -205 23 -40 121
-227 206 -395 37 -74 71 -137 75 -140 3 -3 12 -22 18 -42 7 -21 17 -38 22 -38
5 0 9 -11 9 -25 0 -14 4 -25 9 -25 5 0 12 -8 14 -17 2 -10 3 -3 1 15 -4 42 18
39 27 -4 4 -16 8 -22 9 -14 1 8 6 2 9 -15 4 -16 4 -34 -1 -39 -4 -6 -8 -17 -7
-25 0 -10 4 -7 10 7 19 49 69 2 69 -65 0 -18 4 -33 9 -33 5 0 8 8 6 18 -1 9 0
11 2 5 3 -7 9 -13 14 -13 17 0 9 -20 -8 -20 -17 -1 -17 -1 0 -14 9 -7 17 -21
17 -30 0 -9 6 -16 14 -16 8 0 17 -7 20 -16 9 -24 8 -27 -15 -21 -11 3 -19 2
-17 -1 2 -4 10 -20 18 -35 9 -19 19 -27 32 -24 15 4 16 2 7 -14 -11 -21 -3
-43 12 -33 5 3 16 0 24 -6 8 -7 36 -14 62 -16 29 -2 50 -9 55 -19 5 -8 15 -15
23 -15 8 0 31 -14 50 -32 28 -24 36 -37 32 -55 -2 -13 0 -26 4 -29 5 -3 9 -10
9 -15 0 -6 -5 -7 -11 -4 -5 4 -24 1 -40 -5 -25 -11 -32 -10 -42 3 -7 8 -26 18
-42 21 -26 6 -34 2 -51 -21 -33 -45 -36 -76 -13 -140 25 -69 45 -95 58 -74 5
8 16 11 29 7 14 -5 27 0 40 15 11 11 25 18 31 14 7 -3 11 2 11 14 0 23 15 35
30 26 8 -5 8 -11 1 -19 -7 -9 2 -29 34 -72 25 -32 45 -62 45 -66 0 -5 10 -8
23 -8 12 0 29 -5 37 -10 13 -9 13 -11 0 -19 -8 -6 -11 -13 -7 -17 4 -4 2 -13
-5 -21 -14 -18 -4 -27 33 -29 39 -2 73 -37 65 -68 -7 -30 4 -40 20 -18 17 24
31 6 15 -20 -11 -18 -11 -22 3 -30 12 -7 13 -14 5 -36 -7 -18 -7 -28 0 -30 6
-2 11 -10 11 -18 0 -8 6 -13 13 -11 6 1 11 -4 10 -10 -2 -8 7 -13 23 -13 21 0
24 -4 19 -20 -8 -24 11 -60 30 -60 18 0 20 -27 3 -32 -21 -7 2 -27 27 -22 19
3 23 1 18 -11 -3 -9 -12 -14 -20 -11 -8 3 -11 1 -8 -4 3 -6 13 -10 21 -10 8 0
12 -4 9 -10 -3 -5 -1 -10 5 -10 18 0 47 -33 33 -37 -6 -2 -9 -15 -7 -30 3 -14
-2 -36 -11 -49 -14 -22 -14 -25 0 -30 8 -3 15 -12 15 -20 0 -8 7 -14 16 -14
14 0 14 -3 4 -15 -10 -13 -9 -15 9 -15 16 0 20 -5 17 -22 -3 -13 -5 -23 -6
-23 -1 0 -3 -10 -6 -22 -3 -18 1 -23 15 -23 11 0 22 -4 25 -9 9 -14 -5 -41
-21 -41 -11 0 -11 -5 5 -27 10 -16 17 -34 15 -41 -3 -7 1 -20 9 -29 11 -15 11
-16 -4 -10 -12 4 -15 2 -11 -9 3 -8 16 -17 29 -20 32 -8 31 -23 -1 -16 -14 2
-25 0 -25 -6 0 -12 28 -24 40 -17 5 3 12 0 16 -6 4 -7 3 -9 -2 -6 -6 3 -15 -8
-22 -25 -9 -24 -9 -29 0 -20 33 33 38 -10 8 -63 -16 -29 -17 -35 -5 -35 8 0
15 -7 15 -15 0 -8 -8 -15 -17 -15 -13 0 -15 -2 -5 -8 7 -5 10 -16 7 -25 -4
-10 1 -19 13 -26 11 -6 23 -22 26 -35 4 -18 11 -24 24 -20 13 4 14 3 4 -4 -11
-7 -11 -18 -3 -48 10 -38 9 -109 -2 -120 -8 -8 13 -64 24 -64 4 0 6 -7 2 -16
-5 -14 -2 -16 19 -11 23 6 27 3 40 -41 l16 -47 -27 -5 -26 -6 25 -8 c21 -7 22
-9 7 -13 -16 -4 -17 -6 -3 -16 8 -7 16 -30 17 -52 3 -43 16 -68 30 -59 5 3 9
1 9 -5 0 -5 -6 -12 -12 -14 -10 -4 -10 -6 -1 -6 7 -1 17 -11 24 -22 8 -15 8
-19 0 -15 -6 4 -11 2 -11 -4 0 -6 -5 -8 -12 -4 -7 4 -8 3 -4 -4 4 -6 14 -8 24
-5 14 5 15 3 5 -8 -19 -19 -16 -37 6 -44 12 -3 18 -12 15 -20 -3 -8 1 -12 13
-12 14 2 18 -4 16 -26 -2 -22 2 -27 13 -23 8 3 13 2 10 -3 -3 -5 1 -14 8 -21
10 -7 13 -26 11 -55 -2 -25 2 -51 10 -61 12 -17 13 -16 19 4 8 25 21 29 30 7
3 -8 1 -15 -5 -15 -7 0 -9 -12 -7 -30 3 -18 -1 -35 -9 -41 -7 -6 -13 -14 -13
-18 0 -9 40 -7 63 4 27 12 31 -1 8 -24 -12 -12 -21 -25 -21 -30 0 -9 58 -48
92 -63 11 -4 15 -13 12 -23 -5 -11 -2 -14 12 -8 17 6 17 5 1 -18 -10 -13 -25
-24 -34 -24 -9 0 -18 -7 -20 -15 -3 -11 -2 -12 4 -3 5 7 21 10 37 7 17 -3 25
-1 21 6 -3 5 1 10 9 10 26 0 18 -14 -21 -40 -25 -16 -39 -34 -40 -50 -8 -74
-5 -149 6 -182 16 -48 72 -91 122 -93 l38 -1 -1 65 c-1 39 -8 77 -17 94 -15
26 -14 30 4 65 11 20 28 38 37 40 23 4 52 -42 54 -87 0 -20 5 -44 9 -55 5 -10
4 -26 -2 -35 -6 -10 -7 -25 -1 -40 6 -16 5 -27 -3 -32 -8 -5 -8 -8 1 -11 9 -3
7 -9 -6 -23 -18 -18 -18 -18 9 -11 17 4 27 2 27 -4 0 -6 8 -10 18 -8 9 1 23
-2 31 -7 9 -5 16 -5 18 2 2 5 15 8 28 5 17 -3 25 -11 25 -26 1 -21 1 -21 13 2
12 21 13 20 14 -19 2 -32 -1 -40 -12 -35 -16 6 -19 -3 -7 -20 7 -10 54 -15 47
-4 -5 9 42 6 51 -2 4 -5 0 -8 -9 -8 -9 0 -17 -5 -17 -11 0 -7 10 -9 25 -5 18
5 27 2 31 -9 4 -8 12 -15 19 -15 7 0 15 -5 17 -12 6 -18 88 -18 88 0 0 8 -6
12 -15 8 -9 -3 -19 3 -25 14 -8 16 -8 18 5 14 9 -4 15 -1 15 8 0 8 5 19 11 25
9 9 17 6 31 -10 11 -12 17 -17 14 -10 -4 6 -1 13 5 15 6 2 12 18 13 36 1 19
14 48 31 70 38 47 57 83 51 97 -2 6 -34 29 -70 50 -59 34 -66 42 -66 70 0 42
54 123 96 142 29 14 38 14 93 1 34 -9 63 -13 65 -9 2 3 9 31 15 62 17 81 44
104 114 96 l53 -5 34 65 c40 75 88 119 180 162 74 35 119 39 143 13 22 -25 21
-51 -3 -87 -12 -16 -52 -91 -90 -165 -38 -75 -91 -161 -120 -195 -45 -53 -58
-75 -46 -75 2 0 32 14 67 31 34 17 80 34 100 36 33 5 42 1 66 -25 15 -17 39
-52 53 -77 23 -42 24 -47 10 -72 -8 -15 -35 -39 -60 -53 -44 -26 -45 -28 -42
-72 4 -51 -5 -60 -105 -112 -49 -26 -98 -33 -259 -36 -20 0 -21 -2 -9 -37 18
-51 5 -79 -66 -152 -52 -52 -58 -63 -48 -79 15 -24 60 -41 93 -35 18 4 26 1
26 -9 0 -20 46 -61 70 -63 11 -1 20 1 20 5 0 4 11 5 25 2 23 -4 26 -17 4 -17
-5 0 -9 -4 -8 -10 1 -5 5 -9 10 -7 33 9 59 3 59 -13 0 -8 11 -17 25 -21 14 -3
25 -9 25 -14 0 -17 37 -45 56 -42 15 2 31 -9 54 -37 18 -21 38 -37 44 -35 7 3
26 -9 43 -26 19 -19 37 -28 47 -24 12 5 16 0 17 -17 1 -21 2 -21 6 -4 6 23 22
45 33 45 5 0 6 -9 3 -20 -3 -11 2 -27 12 -37 17 -16 18 -16 31 1 7 10 18 15
24 11 8 -5 8 -10 0 -20 -7 -8 -7 -21 -1 -38 12 -32 28 -42 45 -28 15 13 37 -5
29 -24 -5 -14 34 -32 44 -21 4 3 -1 6 -10 6 -10 0 -17 4 -17 10 0 11 24 3 57
-17 19 -13 25 -12 47 2 23 15 26 15 26 2 0 -28 -11 -46 -26 -40 -9 3 -14 -2
-14 -16 0 -12 5 -21 10 -21 6 0 10 3 10 8 0 4 18 8 40 9 22 2 40 -2 40 -7 0
-6 -6 -10 -12 -10 -10 0 -10 -2 0 -9 8 -4 13 -11 13 -15 -3 -18 0 -26 9 -26 6
0 10 7 10 15 0 8 3 15 8 15 16 -1 42 -28 42 -45 0 -13 5 -16 25 -11 20 5 25 3
25 -12 0 -10 -5 -23 -11 -29 -17 -17 38 -29 63 -14 16 10 18 8 16 -21 -3 -28
0 -32 22 -33 14 0 33 3 43 8 13 6 17 3 17 -13 0 -12 5 -18 10 -15 6 4 8 11 5
16 -4 5 -2 9 4 9 17 0 22 -19 11 -40 -15 -28 14 -39 40 -15 12 11 20 13 20 7
0 -7 -5 -12 -11 -12 -8 0 -7 -5 1 -15 8 -10 16 -12 19 -6 8 13 25 1 34 -22 5
-12 13 -16 26 -12 22 7 51 -3 51 -18 0 -6 8 -19 18 -30 9 -11 11 -17 5 -13 -9
5 -13 1 -13 -12 0 -17 5 -19 34 -15 23 3 39 -1 51 -14 10 -10 21 -18 24 -18 3
0 6 -5 6 -11 0 -19 31 -42 74 -55 24 -7 45 -19 48 -26 3 -7 14 -13 24 -13 20
0 24 -2 74 -45 20 -17 26 -28 18 -32 -7 -2 -13 -8 -13 -12 0 -4 6 -8 13 -9 44
-5 77 -16 77 -24 0 -5 -9 -6 -20 -3 -11 4 -20 2 -20 -4 0 -6 9 -11 19 -11 10
0 22 -7 25 -15 4 -12 14 -14 41 -9 34 6 49 -6 25 -21 -15 -9 9 -37 26 -31 7 3
15 -3 19 -12 6 -14 8 -13 16 7 7 19 12 22 21 13 7 -7 19 -12 28 -12 16 0 50
-33 50 -50 0 -6 5 -10 10 -10 6 0 10 6 10 13 0 8 4 7 10 -3 9 -13 11 -13 21 0
8 12 9 10 4 -7 -5 -17 -2 -23 9 -24 28 -2 31 -4 66 -37 71 -67 85 -80 107 -90
17 -9 22 -9 27 4 4 10 14 14 26 11 12 -3 24 1 30 11 8 15 9 14 10 -5 0 -14 6
-23 15 -23 8 0 15 5 15 10 0 17 18 11 23 -7 2 -10 3 -4 2 13 -2 22 1 31 12 31
9 0 18 -9 21 -19 2 -11 13 -18 28 -18 13 0 24 -5 24 -10 0 -7 6 -8 16 -2 24
14 65 -8 62 -33 -4 -27 48 -73 65 -56 8 8 7 11 -6 11 -9 0 -17 7 -17 15 0 8 9
15 20 15 11 0 20 -5 20 -10 0 -6 16 -10 38 -8 35 3 37 2 34 -24 -2 -22 1 -28
18 -28 11 0 20 5 20 10 0 14 36 12 61 -2 17 -11 22 -10 34 6 11 15 12 23 3 33
-8 10 -8 17 -1 24 15 15 113 1 113 -15 0 -15 38 -50 63 -59 10 -4 17 -12 16
-19 -4 -33 3 -48 25 -54 14 -3 32 -17 41 -30 8 -13 21 -23 28 -21 7 1 13 -11
15 -30 3 -25 8 -33 23 -33 14 0 21 -9 26 -30 4 -23 11 -30 29 -30 13 0 24 -3
25 -7 4 -29 11 -91 12 -105 2 -26 17 -22 17 5 1 20 2 21 14 5 7 -10 17 -14 21
-10 5 4 5 2 2 -4 -4 -7 0 -17 8 -24 12 -10 11 -15 -5 -33 -22 -23 -26 -37 -10
-37 6 0 10 5 10 12 0 9 3 9 13 0 6 -7 15 -48 18 -90 3 -42 6 2570 7 5806 l2
5882 -10000 0 -10000 0 0 -10000z m14430 8305 c5 -27 9 -30 40 -28 53 3 98
-14 102 -40 2 -18 12 -23 46 -28 65 -8 73 -23 40 -72 -11 -15 -10 -20 5 -31 9
-7 17 -18 17 -24 0 -16 -36 -33 -63 -31 -57 5 -61 1 -33 -32 14 -17 26 -35 26
-40 0 -16 -51 -42 -108 -54 -37 -7 -56 -16 -54 -24 1 -7 -3 -19 -9 -27 -15
-18 -157 -87 -223 -108 -43 -15 -51 -15 -79 -1 -41 20 -50 19 -78 -11 -48 -51
-257 -184 -289 -184 -15 0 -12 16 5 34 20 20 19 39 -2 32 -95 -28 -260 -66
-309 -72 -68 -7 -97 8 -87 46 7 27 26 36 88 45 102 14 107 25 22 44 -54 12
-97 41 -97 64 1 34 15 57 41 66 l30 10 -20 37 c-15 27 -17 42 -10 61 19 51 38
68 91 78 47 9 53 13 60 42 10 39 42 63 84 63 28 0 33 4 39 30 8 37 69 82 100
74 13 -3 27 1 34 10 37 44 107 -13 175 -144 33 -63 56 -82 56 -47 0 26 49 114
82 149 33 35 158 120 202 138 41 17 70 8 76 -25z m826 -126 c9 -18 14 -59 14
-114 0 -47 3 -85 7 -85 3 0 14 7 24 16 10 9 26 14 35 10 13 -5 15 -15 9 -53
-6 -40 -4 -49 14 -62 11 -9 23 -30 27 -47 7 -37 -28 -84 -77 -105 -29 -12 -33
-11 -50 10 -25 31 -24 40 7 51 20 8 25 16 22 37 -4 40 -33 42 -46 4 -13 -38
-31 -39 -62 -6 l-23 25 21 23 c12 13 22 26 22 30 0 3 -14 22 -31 42 -30 33
-62 45 -73 26 -12 -18 -136 42 -136 66 0 18 7 16 47 -8 19 -12 37 -19 40 -16
3 3 -2 26 -12 50 -32 85 0 125 57 70 l30 -28 -18 38 c-16 34 -16 39 -3 53 13
12 21 13 41 3 21 -9 30 -8 49 5 26 18 41 10 65 -35z m-9215 -1145 c9 -9 38
-57 64 -109 26 -52 54 -96 63 -99 26 -8 65 -1 102 17 91 46 147 -6 102 -94
-18 -35 -18 -36 5 -70 65 -97 80 -186 44 -257 -27 -53 -48 -69 -140 -102 -92
-34 -165 -39 -212 -15 -37 19 -49 50 -49 121 0 61 -7 75 -85 174 -82 105 -95
131 -95 192 0 178 117 318 201 242z m3689 -84 c0 -5 -2 -10 -4 -10 -3 0 -8 5
-11 10 -3 6 -1 10 4 10 6 0 11 -4 11 -10z m-3965 -526 c49 -24 92 -60 98 -84
3 -10 -1 -31 -9 -46 -8 -14 -14 -32 -14 -39 0 -26 -50 -47 -99 -41 -25 3 -68
9 -96 12 -58 7 -164 38 -215 62 -40 19 -61 63 -44 90 14 22 66 52 107 63 57
15 228 4 272 -17z m42 -423 c21 -1 22 -3 10 -28 -30 -68 -128 -118 -262 -132
-82 -8 -115 -2 -115 23 0 33 116 102 186 110 18 3 39 8 45 12 19 11 72 22 94
18 11 -1 30 -3 42 -3z m2401 -388 c39 -25 52 -45 49 -73 -2 -23 -6 -25 -46
-22 -27 2 -53 -3 -67 -13 -32 -21 -81 -19 -105 4 -20 18 -20 18 8 51 56 67
111 85 161 53z m1320 -16 c4 -20 -25 -34 -39 -20 -14 14 1 45 20 41 9 -2 17
-11 19 -21z m1542 -202 c0 -8 -4 -15 -9 -15 -13 0 -22 16 -14 24 11 11 23 6
23 -9z m-2155 -225 c0 -22 -29 -18 -33 3 -3 14 1 18 15 15 10 -2 18 -10 18
-18z m1130 -146 c0 -10 -8 -20 -17 -22 -18 -3 -26 27 -11 42 12 11 28 0 28
-20z m545 -135 c0 -5 -7 -9 -15 -9 -15 0 -20 12 -9 23 8 8 24 -1 24 -14z
m3460 1 c0 -5 -4 -10 -10 -10 -5 0 -10 5 -10 10 0 6 5 10 10 10 6 0 10 -4 10
-10z m-3584 -52 c4 -5 2 -14 -2 -18 -10 -10 -74 14 -74 28 0 11 69 2 76 -10z
m299 1 c71 -26 113 -62 137 -116 18 -42 48 -59 48 -28 0 15 12 19 40 15 21 -3
39 -31 40 -62 0 -28 17 -37 36 -19 10 10 170 -38 207 -62 24 -16 50 -88 62
-170 6 -45 32 -102 115 -252 46 -82 75 -124 170 -240 70 -86 150 -222 150
-255 0 -6 14 -29 30 -52 35 -48 32 -60 -10 -30 -16 12 -34 22 -39 22 -5 0 -42
16 -83 37 -89 44 -138 87 -131 114 4 12 -3 29 -18 45 -20 22 -24 23 -32 8 -8
-14 -14 -12 -43 20 -18 20 -41 36 -52 36 -23 0 -53 32 -80 86 -12 23 -31 47
-44 55 -27 17 -212 81 -224 78 -5 -2 -25 5 -44 14 -101 47 -183 78 -196 73
-23 -9 -16 -25 14 -32 15 -3 49 -17 76 -30 28 -13 57 -24 67 -24 27 0 89 -29
95 -45 4 -10 12 -11 28 -5 17 6 39 0 91 -26 38 -19 74 -39 81 -45 24 -20 77
-123 65 -127 -16 -5 -41 -32 -41 -43 0 -7 26 -8 70 -3 68 6 70 6 100 -24 16
-17 30 -37 30 -45 0 -19 -36 -50 -52 -44 -16 5 -68 -20 -68 -33 0 -5 16 -17
36 -25 45 -18 63 -20 46 -3 -19 19 -14 25 23 32 21 4 35 13 35 21 0 21 17 19
29 -4 6 -10 36 -31 67 -46 56 -27 56 -28 33 -41 -15 -8 -45 -11 -84 -8 -51 4
-56 3 -35 -7 14 -7 48 -15 75 -19 28 -4 57 -10 65 -13 8 -4 22 -2 30 3 13 9
13 12 -2 21 -19 11 -24 29 -8 29 26 0 227 -155 303 -235 58 -60 72 -85 82
-145 20 -130 56 -212 155 -350 38 -52 99 -149 137 -215 38 -66 100 -166 137
-223 37 -57 66 -108 64 -114 -2 -6 -76 61 -165 150 -123 123 -175 168 -221
191 -34 17 -68 28 -77 25 -21 -8 -3 -30 32 -39 58 -14 165 -111 309 -279 l59
-69 -55 5 c-71 7 -104 -2 -108 -30 -4 -25 13 -29 37 -9 10 9 34 12 68 9 47 -4
59 -10 131 -73 81 -70 101 -97 82 -109 -6 -4 -9 -29 -7 -59 4 -43 1 -53 -14
-62 -15 -8 -17 -14 -9 -29 12 -23 13 -97 1 -104 -5 -3 -12 6 -15 19 -4 17 -11
23 -19 18 -18 -11 -37 -12 -37 -2 0 5 11 14 25 19 31 12 32 22 3 35 -17 8 -22
17 -20 38 1 15 -2 27 -8 27 -5 0 -10 -11 -10 -23 0 -13 -8 -31 -17 -40 -16
-14 -20 -14 -38 -1 -11 8 -19 17 -17 19 1 3 2 14 2 26 0 16 -4 19 -17 15 -9
-4 -20 -1 -25 6 -8 10 -11 10 -15 1 -2 -7 -8 -13 -13 -13 -9 0 -7 15 4 42 8
18 -22 61 -36 52 -5 -3 -17 1 -26 9 -9 8 -24 17 -32 20 -12 4 -12 6 1 6 9 1
19 7 22 15 4 11 -1 13 -24 11 -16 -2 -27 0 -24 4 2 5 -6 12 -19 15 -16 4 -30
21 -45 56 -14 32 -32 55 -51 65 -37 19 -43 30 -31 54 8 15 7 21 -7 27 -28 12
-42 13 -42 3 0 -14 -26 -10 -40 6 -7 9 -15 14 -17 12 -9 -9 -78 23 -75 34 2 7
-1 22 -7 33 -5 12 -11 30 -13 41 -2 13 -13 22 -33 25 -22 4 -29 10 -27 24 3
13 -1 16 -16 12 -11 -4 -24 0 -32 9 -10 12 -10 15 4 15 10 0 15 4 11 10 -3 5
-12 7 -19 4 -8 -3 -18 7 -25 25 -13 30 -45 54 -34 25 14 -36 -65 -76 -106 -54
-27 14 -27 44 0 71 17 17 29 20 61 16 l39 -5 -22 19 c-14 12 -30 17 -41 13
-11 -3 -26 0 -34 7 -14 11 -16 10 -13 -6 2 -11 -6 -34 -17 -52 -19 -31 -22
-32 -42 -17 -21 14 -30 44 -14 44 4 0 20 12 35 25 26 23 27 27 13 41 -9 8 -16
26 -16 40 0 21 -3 24 -25 18 -16 -4 -25 -2 -25 6 0 7 -6 10 -14 7 -8 -3 -20 1
-26 9 -9 10 -9 14 -1 14 9 0 9 5 1 20 -6 11 -14 18 -19 16 -4 -3 -13 5 -21 17
-12 20 -12 21 3 9 16 -14 37 -9 37 9 0 15 -79 10 -105 -7 -26 -17 -55 -13 -55
6 0 7 8 9 20 5 11 -4 20 -2 20 4 0 6 -7 11 -15 11 -8 0 -15 8 -15 18 0 14 -2
15 -9 2 -6 -8 -7 -18 -5 -22 3 -4 -2 -8 -10 -8 -9 0 -16 -4 -16 -10 0 -5 -5
-10 -11 -10 -5 0 -8 4 -5 9 3 5 -1 14 -9 21 -8 7 -12 17 -8 23 3 6 1 7 -6 3
-9 -6 -9 -11 1 -24 11 -13 10 -15 -9 -10 -28 7 -28 9 2 -43 14 -24 25 -53 25
-65 0 -33 -35 -56 -91 -62 -39 -4 -53 -9 -56 -23 -3 -11 -9 -19 -14 -19 -5 0
-9 -9 -9 -20 0 -25 -38 -60 -66 -60 -14 0 -24 -8 -27 -21 -5 -18 -11 -21 -38
-15 l-31 6 17 -26 c21 -32 13 -54 -19 -54 -24 0 -25 -2 -14 -26 15 -32 -3 -47
-39 -33 -42 16 -55 12 -43 -11 14 -26 4 -43 -21 -37 -14 4 -19 0 -19 -14 0
-21 -35 -43 -56 -35 -8 3 -14 12 -14 20 0 8 -16 35 -35 60 -56 74 -41 105 22
44 18 -17 35 -30 37 -27 3 3 -9 26 -26 52 -17 26 -29 50 -26 52 2 2 21 -7 41
-21 46 -31 47 -19 2 40 -37 49 -46 82 -19 72 11 -4 14 -1 12 12 -2 9 -9 17
-16 17 -6 0 -12 3 -12 8 0 4 0 11 0 17 0 5 14 13 30 17 29 8 30 9 15 31 -9 12
-25 22 -35 22 -10 0 -22 5 -25 10 -3 6 -15 10 -26 10 -10 0 -19 5 -19 10 0 6
5 10 10 10 6 0 10 7 10 16 0 9 14 32 30 51 36 40 38 57 8 48 -22 -6 -22 -6 -4
9 11 9 17 19 13 22 -4 4 -21 -5 -39 -20 -69 -55 -141 -97 -150 -88 -15 15 4
43 62 95 59 53 65 68 14 36 -29 -18 -38 -19 -44 -8 -7 11 -14 9 -33 -9 -29
-27 -54 -28 -62 -3 -11 37 47 157 123 253 57 71 177 188 194 188 4 0 8 5 8 10
0 7 -6 7 -17 2 -10 -5 -24 -7 -30 -5 -16 6 -17 65 -2 80 8 8 8 17 -1 33 -8 16
-9 30 -1 52 6 17 10 32 9 33 -2 1 -13 7 -25 14 -21 11 -28 44 -12 66 9 13 6
43 -9 78 -7 16 -12 30 -12 33 0 3 -9 14 -20 26 -31 33 -24 45 8 15 31 -30 44
-34 36 -12 -7 18 7 20 25 3 11 -11 13 -10 9 2 -3 9 -16 14 -31 13 -20 -1 -24
2 -20 14 4 10 2 14 -4 10 -8 -5 -8 4 0 29 6 20 13 31 15 25 6 -17 22 -13 22 7
0 9 -12 23 -27 29 -29 14 -46 8 -23 -8 12 -8 11 -9 -5 -7 -25 4 -34 48 -11 48
18 0 21 16 6 25 -6 4 -8 11 -5 16 9 13 -9 11 -23 -3 -9 -9 -15 -9 -24 1 -11
10 -8 16 12 31 25 19 25 19 5 34 -19 15 -19 15 12 16 27 0 31 -3 26 -17 -5
-15 -3 -16 7 -6 11 10 11 15 0 28 -7 8 -18 15 -26 15 -17 0 -45 40 -37 53 3 6
-2 16 -12 24 -11 7 -13 13 -7 13 7 0 12 9 12 20 0 11 5 20 11 20 5 0 8 4 5 9
-3 5 -16 7 -27 4 -23 -6 -23 2 -3 64 5 15 4 16 -6 3 -9 -11 -13 -12 -17 -2 -7
17 -24 15 -17 -3 4 -8 1 -15 -5 -15 -6 0 -11 3 -12 8 -4 38 -34 92 -51 92 -6
0 -8 6 -5 14 3 8 -3 22 -14 32 -10 9 -19 27 -19 40 0 13 -4 26 -10 29 -5 3
-10 16 -10 29 0 12 -5 27 -10 32 -6 6 -12 32 -14 60 -2 27 -7 57 -11 66 -5 12
-2 20 9 24 23 9 20 28 -6 39 -12 6 -24 16 -26 23 -3 10 7 11 46 6 52 -7 77 4
136 58 27 25 111 23 181 -3z m3340 -13 c-5 -27 -3 -36 12 -45 17 -10 17 -10
-4 -11 -13 0 -23 7 -25 18 -5 26 3 72 14 72 5 0 6 -15 3 -34z m-3571 15 c7
-11 -22 -23 -35 -15 -5 3 -9 9 -9 15 0 12 37 12 44 0z m-374 -64 c0 -8 -3 -17
-7 -20 -9 -9 -34 13 -27 24 8 14 34 11 34 -4z m4029 -86 c6 -10 7 -21 4 -25
-9 -8 -33 14 -33 30 0 20 18 17 29 -5z m-4991 -312 c-5 -33 -34 -47 -54 -27
-14 14 -15 20 -4 32 7 9 23 16 37 16 19 0 24 -4 21 -21z m1210 -67 c3 -20 0
-23 -20 -20 -15 2 -24 11 -26 26 -3 20 0 23 20 20 15 -2 24 -11 26 -26z m4107
-292 c3 -5 -1 -10 -9 -10 -9 0 -16 5 -16 10 0 6 4 10 9 10 6 0 13 -4 16 -10z
m125 -8 c0 -5 -7 -17 -15 -28 -14 -19 -14 -19 -15 2 0 11 3 24 7 27 9 10 23 9
23 -1z m30 -133 c0 -11 -4 -18 -10 -14 -5 3 -7 12 -3 20 7 21 13 19 13 -6z
m55 1 c3 -5 1 -10 -4 -10 -6 0 -11 5 -11 10 0 6 2 10 4 10 3 0 8 -4 11 -10z
m-28 -32 c-3 -8 -6 -5 -6 6 -1 11 2 17 5 13 3 -3 4 -12 1 -19z m-7009 -50 c-6
-18 -28 -21 -28 -4 0 9 7 16 16 16 9 0 14 -5 12 -12z m-1941 -130 c-3 -8 -6
-5 -6 6 -1 11 2 17 5 13 3 -3 4 -12 1 -19z m6228 -18 c62 -36 78 -52 69 -74
-9 -24 -33 -19 -46 9 -6 14 -19 25 -28 25 -10 0 -23 7 -30 15 -7 8 -19 15 -26
15 -14 0 -19 22 -7 33 9 10 11 10 68 -23z m-2940 -70 c0 -21 -5 -25 -30 -25
-33 0 -48 30 -23 46 25 17 53 6 53 -21z m3099 -34 c17 -12 45 -30 62 -39 24
-13 35 -29 51 -77 20 -60 17 -84 -7 -55 -7 8 -29 15 -49 15 -58 0 -111 43
-111 89 0 19 -3 22 -12 13 -16 -16 -35 -15 -42 3 -9 24 4 45 29 45 13 0 25 7
29 15 7 20 14 19 50 -9z m2760 5 c3 -5 -1 -11 -9 -14 -9 -4 -12 -1 -8 9 6 16
10 17 17 5z m-4621 -23 c111 -63 163 -207 139 -389 -15 -106 -23 -126 -60
-140 -93 -35 -282 282 -244 410 7 21 30 59 53 85 43 49 70 57 112 34z m2136
-124 c53 -42 113 -86 133 -97 46 -27 44 -41 -6 -44 -21 -1 -45 -8 -53 -14 -11
-10 -16 -10 -23 0 -5 9 -17 11 -32 8 -34 -9 -61 22 -103 119 -57 130 -49 133
84 28z m-194 -53 c62 -21 76 -33 60 -54 -11 -15 -17 -13 -69 24 -31 22 -56 45
-56 51 0 7 5 7 13 1 6 -5 30 -15 52 -22z m2805 19 c0 -5 -4 -10 -10 -10 -5 0
-10 5 -10 10 0 6 5 10 10 10 6 0 10 -4 10 -10z m-5295 -122 c89 -34 393 -206
500 -283 32 -23 54 -46 52 -55 -4 -21 -63 -19 -109 3 -21 11 -54 20 -73 22
-19 2 -45 11 -57 19 -12 9 -36 16 -53 16 l-30 -1 30 -24 c17 -14 35 -25 40
-25 6 0 30 -11 55 -24 25 -12 66 -31 92 -41 54 -20 90 -61 63 -71 -10 -4 -22
1 -31 15 -8 11 -26 21 -39 21 -13 0 -52 13 -87 30 -70 33 -98 38 -98 15 0 -8
-4 -15 -10 -15 -5 0 -10 -8 -10 -19 0 -15 -11 -20 -61 -25 -57 -7 -64 -5 -125
29 -35 20 -72 47 -81 61 -16 24 -15 26 16 55 19 17 26 29 18 29 -8 0 -20 6
-26 14 -6 7 -55 30 -109 50 -53 21 -117 46 -141 57 -51 23 -171 118 -171 136
0 11 63 34 130 47 14 2 70 3 125 1 85 -2 113 -8 190 -37z m2619 -103 c17 -26
21 -55 8 -55 -9 0 -42 54 -42 69 0 19 17 12 34 -14z m-3299 -435 c0 -18 -43
-26 -57 -12 -16 16 2 33 30 30 16 -2 27 -9 27 -18z m1002 -5 c44 -26 52 -42
32 -62 -9 -9 -5 -14 15 -19 20 -5 35 -1 55 13 15 11 42 24 61 28 19 4 41 12
48 17 8 7 12 7 12 0 0 -12 -109 -70 -143 -76 -12 -3 -22 -5 -22 -7 0 -1 -63
-3 -140 -5 -77 -1 -149 -4 -159 -6 -10 -2 -21 2 -23 9 -3 8 11 12 47 11 28 0
54 2 56 5 6 6 -16 49 -30 58 -17 13 3 41 26 37 16 -2 26 -13 33 -35 9 -33 28
-43 40 -22 4 6 19 10 33 9 15 -1 32 -2 39 -1 18 1 4 29 -18 36 -10 4 -19 13
-19 21 0 19 7 18 57 -11z m1553 -5 c0 -5 -8 -10 -17 -10 -15 0 -16 2 -3 10 19
12 20 12 20 0z m-1270 -86 c0 -3 -9 -19 -20 -34 -11 -16 -18 -34 -15 -42 3 -8
-16 -39 -44 -71 -50 -57 -50 -57 -69 -37 -10 11 -25 32 -33 46 -13 25 -12 28
20 53 34 27 140 89 154 90 4 1 7 -2 7 -5z m-590 -43 c0 -12 -28 -22 -34 -12
-3 5 -3 11 1 15 9 9 33 7 33 -3z m650 -50 c-4 -15 -13 -38 -19 -49 -17 -33
-14 -44 12 -36 22 7 22 7 2 -15 l-19 -22 -18 23 c-23 30 -23 33 7 85 29 49 48
57 35 14z m4810 9 c0 -5 -5 -10 -11 -10 -5 0 -7 5 -4 10 3 6 8 10 11 10 2 0 4
-4 4 -10z m-6180 -40 c0 -5 -7 -10 -15 -10 -8 0 -15 5 -15 10 0 6 7 10 15 10
8 0 15 -4 15 -10z m1493 -69 c-3 -10 1 -29 8 -42 12 -23 12 -23 24 16 l12 40
11 -40 c14 -49 15 -102 2 -110 -5 -3 -19 0 -32 6 -13 7 -30 15 -38 19 -8 4
-22 25 -30 48 -13 38 -13 43 5 61 23 26 45 27 38 2z m-261 -23 c-6 -6 -15 -8
-19 -4 -4 4 -1 11 7 16 19 12 27 3 12 -12z m467 -22 c26 -46 24 -89 -3 -67 -7
6 -16 24 -20 39 -3 15 -8 37 -12 50 -11 37 10 25 35 -22z m4553 -98 c-7 -7
-12 -8 -12 -2 0 14 12 26 19 19 2 -3 -1 -11 -7 -17z m-2102 -270 c0 -14 -19 1
-31 25 -12 22 -12 22 10 3 11 -11 21 -23 21 -28z m-814 7 c-19 -14 -36 -12
-36 6 0 5 12 9 28 9 26 -1 26 -1 8 -15z m2998 -31 c4 -10 1 -14 -6 -12 -15 5
-23 28 -10 28 5 0 13 -7 16 -16z m-2931 -75 c-13 -13 -43 -5 -43 10 0 13 33
20 45 9 5 -5 5 -12 -2 -19z m300 -20 c32 -22 59 -50 61 -62 3 -12 7 -109 9
-214 4 -187 4 -193 -16 -193 -18 0 -19 5 -12 55 6 50 5 55 -13 55 -27 0 -33
10 -16 27 13 13 13 18 1 37 -19 28 -40 27 -42 -1 -2 -33 -12 -38 -25 -13 -8
15 -9 30 -1 51 7 20 7 47 1 77 -11 59 -19 222 -10 222 4 0 32 -18 63 -41z
m578 9 c11 -21 11 -22 -4 -9 -10 7 -17 17 -17 22 0 15 9 10 21 -13z m3284 -19
c24 -25 13 -49 -50 -108 -47 -44 -59 -51 -95 -51 -85 0 -127 48 -96 108 28 54
62 70 148 70 61 0 80 -4 93 -19z m-3275 -142 c26 -71 40 -157 40 -254 0 -96
-13 -90 -80 40 -61 119 -72 178 -45 236 13 30 14 43 6 59 -6 11 -11 29 -11 39
0 32 67 -57 90 -120z m-800 115 c0 -4 -9 -13 -20 -20 -17 -10 -19 -16 -9 -33
6 -11 8 -23 6 -26 -3 -2 -8 5 -12 17 -5 15 -13 20 -26 17 -25 -7 -24 4 1 31
20 21 60 31 60 14z m-1059 -58 c8 -10 22 -14 38 -11 48 9 73 -21 55 -67 -9
-23 -39 -20 -98 10 -63 31 -68 36 -60 57 5 14 17 21 45 26 4 0 12 -6 20 -15z
m1524 -81 c3 -21 10 -54 15 -73 25 -98 41 -288 25 -292 -5 -2 -11 13 -12 32
-4 63 -26 205 -34 220 -4 8 -10 38 -13 67 -3 29 -6 56 -7 60 -3 15 1 23 11 23
5 0 12 -17 15 -37z m201 -90 c50 -107 107 -243 131 -312 10 -30 13 -61 8 -101
-7 -57 -7 -58 -42 -62 -20 -2 -36 0 -38 6 -2 6 -10 34 -20 61 -26 80 -52 188
-64 267 -22 141 -33 203 -38 221 -2 9 1 17 7 17 6 0 31 -44 56 -97z m-436 -47
c0 -3 -4 -8 -10 -11 -5 -3 -10 -1 -10 4 0 6 5 11 10 11 6 0 10 -2 10 -4z
m-120 -56 c0 -5 -2 -10 -4 -10 -3 0 -8 5 -11 10 -3 6 -1 10 4 10 6 0 11 -4 11
-10z m820 -35 c0 -5 -5 -3 -10 5 -5 8 -10 20 -10 25 0 6 5 3 10 -5 5 -8 10
-19 10 -25z m-1035 -15 c0 -18 -6 -26 -23 -28 -24 -4 -38 18 -28 44 3 9 15 14
28 12 17 -2 23 -10 23 -28z m2122 14 c3 -8 1 -20 -6 -27 -8 -8 -11 -8 -11 0 0
6 -3 18 -6 27 -3 9 -1 16 5 16 7 0 14 -7 18 -16z m-1829 -43 c-16 -5 -29 14
-22 34 6 16 8 15 20 -6 8 -15 9 -25 2 -28z m-3513 -4 c172 -88 257 -296 204
-500 -10 -37 -10 -37 -52 -31 -55 8 -137 34 -137 43 0 5 -19 16 -42 27 -24 10
-59 31 -78 46 -19 15 -40 28 -47 28 -7 0 -13 7 -13 15 0 8 -16 22 -35 31 -19
9 -52 31 -72 50 -20 19 -43 34 -50 34 -7 0 -13 9 -13 20 0 11 -7 23 -15 26 -8
4 -15 13 -15 21 0 8 -14 35 -31 60 l-30 46 22 23 c26 28 109 69 166 84 69 17
182 6 238 -23z m6470 -37 c3 -5 2 -10 -4 -10 -5 0 -13 5 -16 10 -3 6 -2 10 4
10 5 0 13 -4 16 -10z m-2855 -22 c0 -18 -2 -20 -9 -8 -6 8 -7 18 -5 22 9 14
14 9 14 -14z m-194 -80 c-8 -58 -17 -151 -26 -288 -7 -106 -7 -99 -8 95 0 132
3 214 10 222 21 25 30 13 24 -29z m-8312 -87 c64 -28 129 -74 205 -146 81 -76
125 -114 171 -145 19 -14 43 -32 53 -40 9 -8 27 -17 40 -20 25 -7 65 -72 66
-111 1 -14 8 -34 16 -45 21 -28 18 -51 -10 -70 -29 -19 -31 -31 -9 -56 13 -14
15 -25 8 -50 -8 -28 -15 -33 -44 -36 -59 -6 -91 -50 -51 -72 11 -5 27 -17 36
-26 22 -23 2 -44 -42 -44 -53 0 -120 -51 -129 -97 -6 -31 -4 -39 15 -51 23
-16 28 -47 8 -55 -7 -3 -25 -3 -39 0 -32 6 -58 -27 -58 -73 0 -51 9 -64 51
-70 59 -10 64 -23 38 -96 -29 -82 -31 -158 -5 -187 28 -30 50 -26 84 17 24 29
33 34 43 25 14 -14 32 -109 31 -162 -1 -19 6 -39 14 -45 24 -19 19 -176 -6
-161 -5 3 -12 1 -15 -5 -12 -19 -36 9 -25 30 12 23 -5 85 -32 110 -48 44 -188
64 -222 30 -6 -6 -11 -41 -10 -78 1 -82 23 -132 58 -132 18 0 29 -10 45 -40
l20 -39 -35 -47 c-36 -47 -54 -106 -36 -118 5 -3 7 -35 4 -75 -5 -69 -4 -70
22 -77 18 -4 37 1 61 15 47 28 52 27 68 -11 8 -18 26 -39 40 -47 34 -18 34
-30 -2 -86 -48 -76 -50 -155 -3 -137 29 11 101 63 111 79 14 26 28 7 35 -47 6
-43 3 -56 -15 -82 l-23 -31 22 -39 23 -38 -38 0 c-51 -1 -137 -48 -141 -78 -5
-31 44 -75 108 -98 27 -10 50 -24 50 -31 0 -7 -9 -30 -21 -52 l-20 -39 20 -41
c12 -22 18 -47 15 -55 -6 -16 -80 -56 -103 -56 -7 0 -44 -9 -82 -21 -80 -24
-85 -36 -39 -94 17 -21 30 -42 30 -46 0 -12 43 -11 56 0 5 5 26 13 47 16 51
10 50 -13 -3 -64 -22 -21 -40 -43 -40 -48 0 -14 72 -79 108 -97 37 -19 39 -26
12 -51 -29 -27 -25 -58 11 -79 16 -10 37 -15 45 -12 10 4 33 -14 66 -49 55
-59 71 -66 88 -35 6 11 22 27 35 36 23 15 27 15 51 -1 l27 -17 -38 -35 -37
-34 21 -23 c27 -29 26 -40 -4 -80 -38 -50 -34 -66 16 -63 48 2 50 5 74 105 16
67 16 74 1 91 -22 24 -20 41 3 41 11 0 32 -16 47 -35 25 -34 26 -39 20 -110
-10 -107 23 -203 65 -190 23 8 42 -34 33 -69 -4 -19 1 -25 35 -38 30 -12 49
-30 77 -74 36 -56 37 -60 26 -101 -16 -56 -15 -92 2 -124 7 -14 16 -38 20 -54
26 -102 188 -488 296 -705 108 -216 173 -330 308 -535 281 -427 523 -706 940
-1084 61 -57 112 -107 112 -112 0 -18 -76 -10 -95 11 -24 26 -90 35 -140 17
-27 -9 -51 -11 -75 -5 -34 8 -133 24 -198 33 -18 2 -40 11 -49 20 -9 9 -24 14
-34 12 -10 -3 -20 0 -22 6 -2 6 -11 7 -23 3 -17 -8 -16 -10 14 -22 17 -8 32
-16 32 -19 0 -2 -19 -10 -42 -16 -52 -15 -109 -12 -123 5 -11 14 -75 38 -115
43 -59 7 -228 2 -259 -8 -38 -13 -103 1 -134 29 -32 29 -228 12 -266 -22 -26
-24 -77 -21 -203 10 -17 4 -28 2 -28 -4 0 -21 -52 -72 -73 -72 -12 0 -46 9
-75 20 -29 11 -58 18 -63 14 -6 -3 -31 2 -56 11 -53 20 -109 16 -166 -14 -30
-15 -45 -17 -70 -10 -17 5 -54 9 -81 9 -27 0 -66 5 -87 11 -32 10 -46 9 -83
-5 -32 -12 -49 -14 -58 -7 -7 5 -31 25 -53 43 -55 46 -89 62 -118 54 -26 -6
-35 -27 -39 -94 l-2 -33 -58 7 c-40 5 -58 3 -58 -5 0 -23 -61 -12 -83 15 -12
15 -35 39 -50 55 l-28 29 -37 -27 c-20 -15 -48 -39 -62 -55 -33 -36 -84 -44
-141 -22 -24 10 -47 22 -50 27 -12 18 3 47 36 67 53 33 61 48 39 68 -27 23
-39 26 -106 27 -79 1 -91 16 -49 59 41 42 37 65 -11 82 -64 22 -119 13 -170
-29 l-46 -37 -45 19 c-60 26 -85 19 -93 -28 -4 -20 -11 -42 -17 -49 -19 -24
-12 -58 16 -84 38 -36 36 -59 -6 -55 -23 1 -33 7 -35 20 -1 9 -3 26 -4 37 -1
11 -6 20 -10 20 -4 0 -8 6 -8 14 0 8 -15 17 -36 21 -40 7 -65 -13 -57 -45 5
-17 -21 -35 -37 -25 -5 3 -11 1 -15 -5 -12 -20 -31 -9 -68 40 -41 55 -46 56
-131 20 -38 -16 -39 -15 -105 16 -94 45 -195 59 -242 33 -21 -11 -107 24 -116
47 -3 7 -19 22 -36 33 -18 12 -45 30 -62 41 -16 11 -38 18 -48 16 -10 -2 -20
1 -23 8 -6 16 67 215 146 396 179 414 352 744 578 1098 57 90 102 166 99 168
-9 9 -213 -214 -328 -358 -224 -282 -355 -479 -461 -698 -74 -152 -76 -156
-81 -149 -9 11 14 245 31 324 84 376 463 1245 741 1695 69 111 198 291 274
381 75 90 44 74 -58 -28 -190 -192 -418 -510 -622 -868 -137 -239 -207 -389
-289 -620 -9 -27 -19 -44 -22 -37 -8 25 62 557 109 827 27 156 87 441 109 525
5 19 19 76 30 125 43 183 103 410 111 420 5 5 9 19 9 32 0 13 5 23 10 23 6 0
10 -7 10 -15 0 -8 7 -15 16 -15 11 0 15 6 11 20 -3 13 0 20 9 20 8 0 14 -4 14
-10 0 -5 7 -7 16 -3 11 4 12 9 5 16 -12 12 -15 78 -3 76 29 -5 60 5 74 24 16
23 16 23 -13 19 -18 -3 -29 0 -29 7 0 7 8 11 18 10 30 -3 38 1 22 11 -13 8
-13 11 1 26 16 15 17 15 24 -5 3 -11 11 -21 16 -21 12 0 12 17 -1 25 -15 9
-12 19 9 44 18 20 20 21 29 5 7 -13 13 -14 31 -4 13 6 25 9 29 6 3 -3 0 -6 -6
-6 -7 0 -12 -5 -12 -11 0 -6 -10 -19 -22 -30 -13 -10 -17 -18 -10 -19 6 0 12
5 12 10 0 6 7 10 16 10 9 0 25 11 36 25 11 15 30 25 44 25 14 0 34 4 44 10 15
8 17 7 12 -12 -4 -15 -2 -19 7 -14 8 5 14 0 18 -13 3 -12 11 -21 18 -21 7 0
18 -6 24 -14 7 -8 26 -18 42 -21 16 -4 29 -10 29 -14 0 -24 178 -48 330 -44
97 2 143 18 193 65 39 37 53 60 71 122 15 49 6 76 -25 76 -21 0 -68 46 -69 66
0 7 -10 14 -23 18 -13 3 -44 23 -68 43 -24 21 -68 51 -98 67 -50 27 -59 28
-128 22 -41 -3 -87 -12 -101 -20 -15 -7 -40 -20 -57 -27 -16 -8 -35 -20 -41
-28 -8 -11 -15 -11 -32 -2 -15 8 -28 9 -41 2 -14 -8 -22 -6 -35 8 -13 14 -14
21 -5 27 9 5 7 11 -7 21 -17 12 -17 16 -4 37 8 12 24 38 35 56 44 75 187 200
227 200 10 0 18 4 18 10 0 9 35 18 91 24 14 1 35 12 47 24 15 15 30 20 54 17
68 -9 114 26 61 46 -25 9 -25 10 -7 25 14 11 15 17 7 20 -22 9 -14 24 12 24
16 0 25 -6 25 -15 0 -8 -4 -15 -10 -15 -5 0 -10 -7 -10 -15 0 -12 7 -14 28 -9
15 4 32 11 37 16 6 6 4 7 -7 3 -15 -6 -18 -2 -16 21 2 20 19 45 55 81 45 44
53 56 47 78 -5 21 -3 25 15 25 12 0 21 -5 21 -11 0 -5 5 -7 11 -4 6 4 8 14 4
22 -3 10 6 26 27 44 17 16 27 29 22 29 -5 0 -4 4 2 8 6 4 20 21 31 39 19 31
20 32 47 18 25 -13 27 -13 22 0 -3 8 -1 17 4 20 6 4 10 16 10 28 0 22 -1 22
-20 -3 -17 -21 -20 -22 -20 -7 0 31 33 77 55 77 39 0 63 12 74 37 10 21 9 29
-4 43 -26 28 -18 43 12 20 19 -15 28 -17 34 -8 6 9 12 8 25 -3 16 -13 17 -12
11 4 -4 10 -7 28 -7 40 0 17 -2 19 -9 8 -10 -15 -39 -23 -53 -15 -13 8 14 30
47 39 17 4 24 10 17 12 -22 8 19 31 48 27 14 -3 20 -1 14 3 -6 5 -15 24 -19
43 -5 19 -10 29 -12 23 -7 -19 -23 -16 -23 3 0 13 7 15 32 10 l31 -6 -26 24
c-25 23 -25 25 -8 40 10 9 22 16 27 16 5 0 9 13 10 30 1 16 -3 27 -7 24 -5 -3
-5 5 0 18 11 29 -3 59 -24 52 -8 -4 -15 -15 -15 -25 0 -25 -17 -24 -25 1 -7
23 10 50 31 50 8 0 14 5 14 10 0 6 -9 10 -20 10 -26 0 -25 15 3 35 19 13 20
17 7 25 -13 9 -13 11 -1 19 24 15 -2 61 -34 61 -14 0 -25 3 -25 6 0 12 34 33
53 34 15 0 13 4 -10 25 -26 23 -27 26 -10 36 17 10 18 12 1 30 -9 10 -18 35
-19 54 -2 37 -25 75 -25 42 0 -9 -4 -17 -9 -17 -6 0 -6 12 -1 29 8 28 7 30
-23 33 -21 2 -35 10 -41 24 -6 12 -20 28 -32 35 -39 24 -137 111 -196 173 -95
100 -122 220 -68 308 17 29 19 43 13 114 -7 96 -2 122 33 164 39 45 87 61 254
83 58 8 162 -3 204 -22z m8372 18 c4 -7 -1 -16 -10 -21 -9 -5 -16 -22 -16 -38
0 -16 -4 -32 -10 -35 -14 -9 -13 46 3 78 13 29 22 33 33 16z m5147 -55 c46
-16 47 -17 47 -58 0 -48 -23 -77 -75 -93 -26 -8 -31 -15 -35 -54 -4 -39 -8
-44 -32 -47 -20 -2 -31 3 -43 22 -15 23 -15 26 1 51 14 21 15 31 5 51 -21 47
-14 90 20 118 36 30 49 32 112 10z m-3383 -66 c0 -21 -3 -29 -10 -22 -5 5 -7
19 -4 32 9 31 14 27 14 -10z m-1786 -47 c9 -72 50 -189 101 -296 43 -89 53
-124 38 -138 -10 -11 -33 14 -33 35 0 11 -21 63 -46 116 -61 128 -84 203 -84
280 0 73 14 75 24 3z m463 -23 c-3 -7 -5 -2 -5 12 0 14 2 19 5 13 2 -7 2 -19
0 -25z m1341 20 c7 -7 12 -23 13 -37 1 -44 41 -106 69 -108 14 0 31 -1 38 -2
6 -1 12 -8 12 -16 0 -20 -35 -19 -72 3 -28 16 -30 16 -42 0 -19 -26 -28 -22
-54 23 -24 42 -24 61 0 122 12 30 18 33 36 15z m-1113 -39 c1 -34 -10 -38 -25
-9 -9 16 -8 22 5 26 8 3 12 11 8 18 -3 6 -2 7 3 3 4 -4 9 -21 9 -38z m-8497
-76 c3 -21 -29 -53 -55 -53 -18 0 -25 36 -11 60 17 28 62 24 66 -7z m8719 -90
c2 -6 -9 -14 -24 -17 -15 -4 -45 -24 -65 -44 -41 -39 -53 -39 -42 2 4 18 20
32 58 50 53 25 67 27 73 9z m-1328 -54 c152 -35 302 -175 347 -325 32 -105 21
-238 -28 -346 -23 -51 -38 -62 -38 -28 0 11 -8 23 -17 27 -10 3 -26 13 -36 21
-9 8 -20 12 -23 9 -4 -4 -19 2 -34 13 -15 11 -49 27 -76 36 -27 9 -56 22 -65
30 -8 8 -21 14 -27 14 -7 0 -12 4 -12 9 0 12 -108 91 -125 91 -8 0 -15 4 -15
8 0 9 -77 62 -90 62 -4 0 -10 7 -14 15 -3 8 -16 15 -30 15 -16 0 -27 7 -31 19
-3 11 -23 34 -43 53 -78 70 -78 71 -43 122 87 126 251 190 400 155z m2455 -74
c69 -13 156 -126 156 -202 0 -27 5 -36 21 -40 16 -5 19 -11 14 -31 -4 -15 0
-31 9 -41 14 -15 21 -59 17 -110 -2 -41 -20 -11 -27 44 -3 28 -14 68 -25 90
-10 22 -21 51 -24 65 -2 14 -24 47 -47 73 -42 47 -44 48 -113 53 -116 8 -135
13 -135 33 0 32 76 86 107 76 6 -2 27 -7 47 -10z m234 -70 c5 -37 -7 -115 -17
-115 -14 0 -31 50 -26 76 3 13 7 36 10 50 7 33 29 26 33 -11z m-1501 -9 c-4
-9 -11 -16 -16 -16 -15 0 -23 33 -9 41 17 11 32 -5 25 -25z m3588 3 c15 -45
-23 -77 -53 -47 -16 16 -15 65 1 71 21 7 46 -4 52 -24z m-2391 -89 c-42 -43
-44 -45 -44 -31 0 17 51 71 67 71 10 0 2 -14 -23 -40z m-1554 -20 c0 -5 -4
-10 -10 -10 -5 0 -10 5 -10 10 0 6 5 10 10 10 6 0 10 -4 10 -10z m307 -75 c75
-70 47 -73 -36 -3 -26 22 -42 58 -27 58 2 0 30 -25 63 -55z m93 0 c0 -33 -3
-43 -13 -39 -17 6 -60 84 -47 84 5 0 12 -4 15 -10 9 -15 25 -12 25 6 0 8 5 12
10 9 6 -3 10 -26 10 -50z m68 43 c7 -7 12 -21 12 -31 0 -17 -2 -17 -20 6 -11
14 -20 28 -20 31 0 10 15 7 28 -6z m342 -18 c0 -12 -28 -25 -36 -17 -9 9 6 27
22 27 8 0 14 -5 14 -10z m-350 -59 c0 -8 45 -31 60 -31 6 0 10 6 10 14 0 27
23 30 42 6 20 -25 9 -53 -18 -43 -17 6 -19 -13 -1 -24 23 -15 71 -73 60 -73
-6 0 -36 23 -66 50 -30 28 -62 50 -70 50 -9 0 -18 4 -21 9 -3 5 -15 7 -26 4
-11 -3 -20 0 -20 6 0 6 5 11 10 11 6 0 10 9 10 20 0 13 5 18 15 14 8 -4 15 -9
15 -13z m423 -27 c16 -19 26 -42 23 -50 -7 -18 -25 -18 -32 1 -4 9 -19 15 -40
15 -19 0 -34 3 -34 6 0 8 43 63 50 63 3 1 18 -15 33 -35z m812 -16 c36 -51 54
-130 35 -153 -16 -20 -119 -8 -144 16 -19 18 -19 20 -2 76 40 128 59 138 111
61z m-1660 -38 c5 -23 4 -32 -3 -25 -5 6 -13 30 -16 55 -7 50 6 29 19 -30z
m91 3 c-8 -9 -46 32 -46 50 0 7 12 -1 27 -15 15 -15 23 -31 19 -35z m-11218 7
c44 -27 41 -65 -7 -97 -59 -40 -131 -26 -131 25 1 33 18 57 56 77 37 19 42 19
82 -5z m11458 11 c5 -5 24 -11 43 -13 47 -4 54 -28 7 -28 -45 0 -82 14 -89 34
-7 18 22 23 39 7z m608 -6 c17 -13 18 -19 8 -54 -7 -21 -21 -50 -31 -62 -17
-21 -21 -22 -44 -10 -14 7 -31 24 -38 37 -7 13 -18 24 -26 24 -7 0 -13 7 -13
16 0 11 5 14 16 10 55 -21 64 -19 79 18 17 40 21 42 49 21z m-9894 -49 c0 -3
-4 -8 -10 -11 -5 -3 -10 -1 -10 4 0 6 5 11 10 11 6 0 10 -2 10 -4z m9116 -17
c12 -14 25 -18 41 -14 19 4 23 1 23 -20 0 -16 -6 -25 -15 -25 -8 0 -15 5 -15
10 0 6 -11 15 -24 20 -14 5 -30 18 -36 30 -14 26 2 26 26 -1z m588 6 c-4 -8
-16 -15 -28 -15 -12 0 -27 -5 -34 -12 -18 -18 -14 -1 5 22 21 24 65 28 57 5z
m-316 -36 c2 -12 -10 -19 -45 -28 -63 -17 -120 -41 -134 -57 -7 -9 -7 -19 0
-33 9 -16 7 -22 -8 -33 -10 -7 -21 -23 -25 -35 -4 -13 -14 -23 -22 -23 -8 0
-14 -9 -14 -19 0 -19 43 -41 82 -41 25 0 68 -29 68 -45 0 -18 -59 -68 -98 -84
-37 -15 -41 -27 -12 -36 28 -9 164 -139 151 -143 -7 -2 -17 1 -24 6 -18 15
-107 48 -150 56 -36 7 -38 6 -32 -13 3 -12 2 -21 -4 -21 -5 0 -13 9 -16 20 -3
11 -18 23 -33 26 -15 3 -33 8 -40 10 -8 2 -12 -3 -10 -14 1 -9 -5 -28 -14 -41
-19 -26 -25 -26 -143 4 -89 22 -99 27 -103 53 -2 13 7 28 27 43 34 25 32 39
-5 39 -17 0 -27 8 -34 26 -12 30 -13 84 -2 101 11 18 140 73 171 73 15 0 32 5
38 11 6 6 27 14 47 19 34 7 38 6 51 -20 8 -16 15 -39 15 -50 0 -15 5 -20 18
-18 23 4 29 70 8 91 -9 9 -16 22 -16 29 1 18 25 48 39 48 14 0 15 -17 1 -25
-15 -9 -12 -35 4 -35 8 0 18 9 21 20 3 11 11 20 16 20 5 0 9 9 9 21 0 22 54
79 75 79 7 0 23 9 36 20 30 25 102 24 107 -1z m787 9 c31 -14 32 -42 3 -62
-25 -18 -58 -21 -58 -7 0 5 -9 13 -20 16 -25 8 -26 33 -2 51 21 17 44 17 77 2z
m-453 -30 c-15 -15 -26 -4 -18 18 5 13 9 15 18 6 9 -9 9 -15 0 -24z m3148 -18
c0 -13 -5 -18 -15 -14 -8 4 -15 12 -15 20 0 8 7 14 15 14 8 0 15 -9 15 -20z
m28 -5 c-3 -3 -9 2 -12 12 -6 14 -5 15 5 6 7 -7 10 -15 7 -18z m-3348 5 c0 -5
-4 -10 -10 -10 -5 0 -10 5 -10 10 0 6 5 10 10 10 6 0 10 -4 10 -10z m299 -65
c44 -85 80 -140 118 -180 25 -27 28 -28 31 -10 2 11 11 28 19 37 13 14 13 20
3 33 -7 8 -19 15 -27 15 -11 0 -11 4 -3 20 13 25 32 25 54 1 19 -21 21 -36 10
-98 -4 -26 -12 -43 -20 -43 -18 0 -18 -5 2 -35 21 -32 38 -32 32 0 -3 14 -2
28 2 30 5 3 11 23 15 45 6 35 9 39 26 30 10 -6 19 -19 19 -30 0 -11 9 -24 20
-30 11 -6 20 -17 20 -25 0 -8 4 -15 10 -15 5 0 22 -13 37 -30 14 -16 35 -30
45 -30 11 0 16 -4 13 -10 -3 -5 -18 -10 -32 -10 -15 0 -37 -10 -50 -22 l-23
-21 0 41 c0 47 -15 55 -30 17 -14 -38 -15 -86 -1 -128 10 -30 10 -41 1 -52
-17 -20 -20 -19 -55 11 -23 20 -32 23 -40 12 -18 -22 -55 -39 -74 -33 -10 3
-23 17 -29 31 -22 48 -12 91 24 104 19 8 29 4 50 -15 16 -15 21 -25 13 -25 -9
0 -5 -8 9 -22 23 -23 23 -23 38 -3 21 28 13 49 -19 53 -15 2 -27 8 -27 13 0 5
-5 9 -12 9 -6 0 -20 7 -30 17 -26 23 -66 4 -75 -37 -3 -17 -15 -37 -27 -45
-43 -31 -136 -8 -136 32 0 9 11 31 25 49 24 32 21 50 -7 39 -13 -5 -19 4 -58
85 -4 9 -29 18 -60 23 -50 7 -135 42 -146 59 -3 4 16 32 41 63 40 50 44 58 30
71 -15 15 -20 36 -10 46 3 2 30 1 61 -3 56 -8 114 7 129 31 4 6 18 10 32 8 21
-2 33 -17 62 -73z m246 19 c29 -29 45 -70 32 -83 -18 -18 -44 -13 -61 14 -12
19 -23 24 -37 20 -10 -4 -19 -2 -19 4 0 23 14 41 31 41 10 0 19 5 19 10 0 15
16 12 35 -6z m490 -10 c25 -25 2 -43 -25 -19 -11 10 -20 22 -20 27 0 14 28 9
45 -8z m-1560 -34 c-3 -5 -10 -10 -16 -10 -5 0 -9 5 -9 10 0 6 7 10 16 10 8 0
12 -4 9 -10z m1755 -32 c0 -28 -3 -39 -10 -32 -9 9 -3 74 6 74 2 0 4 -19 4
-42z m-8730 12 c0 -5 -4 -10 -9 -10 -6 0 -13 5 -16 10 -3 6 1 10 9 10 9 0 16
-4 16 -10z m8250 -10 c0 -11 -7 -20 -15 -20 -27 0 -18 30 13 39 1 1 2 -8 2
-19z m-1056 -21 c-3 -5 -10 -7 -15 -3 -5 3 -7 10 -3 15 3 5 10 7 15 3 5 -3 7
-10 3 -15z m131 -39 c3 -5 -1 -10 -10 -10 -9 0 -13 5 -10 10 3 6 8 10 10 10 2
0 7 -4 10 -10z m875 -20 c0 -5 -5 -10 -11 -10 -5 0 -7 5 -4 10 3 6 8 10 11 10
2 0 4 -4 4 -10z m327 -56 c29 -8 20 -24 -13 -24 -15 0 -24 6 -24 15 0 17 4 18
37 9z m-343 -19 c-6 -16 -24 -21 -24 -7 0 11 11 22 21 22 5 0 6 -7 3 -15z
m406 -25 c0 -5 -2 -10 -4 -10 -3 0 -8 5 -11 10 -3 6 -1 10 4 10 6 0 11 -4 11
-10z m140 -16 c0 -8 -4 -12 -10 -9 -5 3 -10 10 -10 16 0 5 5 9 10 9 6 0 10 -7
10 -16z m-245 -27 c-8 -12 -27 -39 -41 -60 -20 -31 -28 -36 -39 -27 -18 15 -3
50 24 57 9 2 25 17 36 33 11 16 23 26 28 23 4 -3 1 -15 -8 -26z m295 -11 c0
-13 -7 -29 -15 -36 -12 -10 -15 -10 -15 1 0 10 -3 10 -12 1 -19 -19 -28 -14
-28 13 0 18 5 25 19 25 10 0 22 7 25 16 8 21 26 8 26 -20z m-10736 -101 c-4
-8 -8 -15 -10 -15 -2 0 -4 7 -4 15 0 8 4 15 10 15 5 0 7 -7 4 -15z m9499 -126
c-37 -70 -132 -181 -168 -198 -17 -8 -34 -20 -38 -28 -4 -7 -13 -13 -18 -13
-23 0 44 100 146 219 23 26 54 67 70 93 l30 45 3 -33 c2 -23 -6 -51 -25 -85z
m-43 87 c0 -16 -18 -31 -27 -22 -8 8 5 36 17 36 5 0 10 -6 10 -14z m-180 -67
c0 -6 -4 -7 -10 -4 -5 3 -10 11 -10 16 0 6 5 7 10 4 6 -3 10 -11 10 -16z
m1410 -4 c0 -8 -4 -15 -10 -15 -5 0 -10 7 -10 15 0 8 5 15 10 15 6 0 10 -7 10
-15z m-1524 -62 c-12 -12 -41 12 -44 38 l-4 24 28 -27 c15 -15 25 -31 20 -35z
m812 27 c30 -28 28 -33 -12 -26 l-34 7 8 -35 c6 -25 4 -38 -8 -50 -14 -13 -18
-13 -44 5 -32 23 -35 39 -12 75 11 16 23 23 34 19 11 -3 20 1 24 10 7 20 18
19 44 -5z m-7236 -37 c42 -41 50 -73 17 -73 -11 0 -17 5 -14 10 11 18 -5 49
-36 67 -30 18 -38 33 -17 33 7 0 29 -17 50 -37z m-2785 21 c-3 -3 -12 -4 -19
-1 -8 3 -5 6 6 6 11 1 17 -2 13 -5z m9128 -44 c-3 -5 -10 -10 -16 -10 -5 0 -9
5 -9 10 0 6 7 10 16 10 8 0 12 -4 9 -10z m769 -56 c9 -22 8 -24 -9 -18 -8 4
-15 12 -15 20 0 19 16 18 24 -2z m-7128 -21 c35 -38 19 -43 -19 -5 -17 18 -26
32 -19 32 7 0 24 -12 38 -27z m122 10 c-5 -25 -28 -28 -28 -4 0 12 6 21 16 21
9 0 14 -7 12 -17z m-444 -46 c15 -19 26 -39 26 -45 0 -17 -27 -15 -34 3 -3 8
-12 15 -21 15 -8 0 -15 5 -15 10 0 17 -27 11 -34 -7 -5 -12 -10 -13 -17 -6
-16 16 20 62 48 63 13 0 32 -13 47 -33z m506 23 c0 -5 -4 -10 -10 -10 -5 0
-10 5 -10 10 0 6 5 10 10 10 6 0 10 -4 10 -10z m6086 -1 c12 -20 -12 -32 -35
-17 -11 7 -21 16 -21 20 0 12 48 9 56 -3z m841 -19 c9 -14 10 -21 1 -26 -12
-8 -40 24 -32 37 8 14 18 11 31 -11z m345 -7 c26 -24 22 -36 -18 -58 l-36 -19
-19 24 c-19 25 -19 25 7 48 30 26 41 27 66 5z m-10325 -15 c-3 -8 -6 -5 -6 6
-1 11 2 17 5 13 3 -3 4 -12 1 -19z m4563 2 c0 -5 -4 -10 -10 -10 -5 0 -10 5
-10 10 0 6 5 10 10 10 6 0 10 -4 10 -10z m5103 -19 c7 -35 -2 -129 -14 -136
-11 -8 -71 85 -65 101 3 8 14 14 25 14 12 0 21 9 25 25 9 34 22 32 29 -4z
m1286 -84 c-12 -29 -43 -52 -58 -43 -5 3 -14 19 -21 35 -11 26 -9 34 10 61 12
16 28 30 36 30 8 0 18 8 21 18 5 12 10 4 15 -28 5 -29 4 -55 -3 -73z m-6459
82 c19 -8 65 -33 102 -56 36 -23 68 -39 71 -37 10 10 -6 45 -24 55 -11 5 -19
14 -19 20 0 16 81 -53 96 -83 24 -46 19 -55 -33 -57 -47 -1 -143 33 -143 51 0
14 -110 79 -121 72 -6 -3 -19 2 -30 12 -20 18 -20 19 -2 32 20 14 49 12 103
-9z m4698 -27 c-3 -9 -11 -16 -18 -14 -8 2 -36 6 -62 9 -58 7 -63 27 -10 40
45 12 95 -8 90 -35z m-6168 8 c0 -5 -2 -10 -4 -10 -3 0 -8 5 -11 10 -3 6 -1
10 4 10 6 0 11 -4 11 -10z m2194 -32 c34 -33 76 -98 76 -120 0 -7 -7 -3 -15 8
-15 19 -15 19 -30 0 -8 -10 -16 -24 -19 -30 -6 -15 -28 19 -43 69 -12 39 -18
105 -9 105 3 0 21 -15 40 -32z m-2188 1 c11 -18 -11 -31 -40 -23 l-27 6 23 13
c30 17 35 17 44 4z m-2316 -9 c0 -5 -2 -10 -4 -10 -3 0 -8 5 -11 10 -3 6 -1
10 4 10 6 0 11 -4 11 -10z m-14 -91 c4 -7 7 -21 8 -33 1 -12 11 -25 24 -31 12
-5 22 -18 22 -27 0 -22 -3 -22 -43 -2 -44 23 -67 44 -67 64 0 32 41 53 56 29z
m9283 -63 c9 -11 9 -25 1 -58 -42 -157 -65 -188 -74 -101 -10 97 -10 143 0
152 8 8 27 15 55 20 4 0 12 -5 18 -13z m-2858 -62 l34 -17 -27 -11 c-21 -9
-24 -15 -17 -29 6 -9 7 -22 4 -27 -11 -17 -83 -50 -109 -50 -14 0 -29 -8 -35
-17 -7 -13 -13 -15 -21 -7 -7 7 -2 22 20 52 34 48 36 59 14 83 -9 10 -14 26
-10 35 5 14 16 16 60 11 30 -3 69 -13 87 -23z m-208 -24 c-8 -28 -29 -43 -53
-35 -26 8 -21 26 11 42 35 18 48 16 42 -7z m2634 -19 c-6 -24 10 -51 29 -51 9
0 14 -6 11 -12 -2 -9 -25 -13 -64 -13 -36 0 -67 -6 -77 -14 -9 -7 -16 -9 -16
-4 0 17 35 38 58 35 17 -3 22 2 22 17 0 12 5 21 10 21 6 0 10 9 10 20 0 11 5
20 11 20 6 0 9 -8 6 -19z m-68 -5 c19 -23 -19 -39 -56 -25 l-28 11 30 13 c39
17 41 17 54 1z m-124 -26 c-3 -5 -13 -10 -21 -10 -8 0 -14 5 -14 10 0 6 9 10
21 10 11 0 17 -4 14 -10z m30 -75 c28 -29 32 -45 11 -45 -8 0 -22 14 -30 32
-24 48 -20 51 19 13z m1419 -4 c24 -25 27 -36 29 -106 l2 -78 -31 -9 c-19 -5
-34 -16 -37 -29 -3 -11 -15 -23 -26 -26 -16 -4 -21 -13 -21 -37 0 -18 -5 -37
-12 -44 -18 -18 -62 -14 -81 8 -9 11 -23 17 -32 14 -24 -10 -29 22 -6 45 12
12 21 27 21 34 0 8 18 39 40 70 28 39 40 66 40 90 0 19 5 48 11 66 9 26 16 31
43 31 22 0 41 -9 60 -29z m4051 19 c3 -5 -1 -10 -9 -10 -9 0 -16 5 -16 10 0 6
4 10 9 10 6 0 13 -4 16 -10z m-4302 -47 c3 -27 1 -52 -4 -57 -6 -6 -9 -6 -9 1
0 6 -16 21 -35 33 -40 25 -45 47 -12 60 45 18 54 13 60 -37z m-957 -10 c-2 -3
-9 -2 -15 2 -8 4 -7 13 1 28 l13 22 3 -23 c2 -13 1 -26 -2 -29z m712 32 c28
-8 26 -32 -5 -53 -21 -13 -23 -13 -23 7 0 27 -30 28 -37 1 -7 -26 -20 -25 -29
2 -8 25 28 61 55 54 9 -2 26 -7 39 -11z m726 -27 c3 -15 -1 -30 -14 -43 -20
-19 -20 -19 -20 7 0 54 23 78 34 36z m-1018 -54 c17 -13 34 -24 38 -24 13 0
100 -62 118 -84 29 -36 10 -36 -45 1 -28 19 -85 53 -124 75 -40 22 -73 43 -73
47 0 28 38 21 86 -15z m562 -104 c-5 -25 -18 -62 -29 -82 -25 -48 -24 -58 4
-58 24 0 67 -54 67 -84 0 -54 -59 -76 -95 -36 -16 18 -17 25 -6 62 11 36 11
42 -3 50 -9 5 -16 16 -16 24 0 10 -8 14 -27 12 -18 -2 -28 2 -31 13 -4 19 128
163 139 152 4 -4 3 -28 -3 -53z m-573 15 c0 -10 -6 -20 -12 -22 -8 -3 -13 5
-13 22 0 17 5 25 13 23 6 -3 12 -13 12 -23z m-11252 -134 c-15 -33 -31 -61
-36 -61 -4 0 -1 13 8 30 8 16 15 36 15 45 0 8 4 15 9 15 5 0 13 9 16 21 4 11
9 18 11 16 3 -3 -8 -32 -23 -66z m11188 36 c-8 -8 -11 -7 -11 4 0 20 13 34 18
19 3 -7 -1 -17 -7 -23z m1009 18 c0 -8 -4 -15 -10 -15 -5 0 -10 7 -10 15 0 8
5 15 10 15 6 0 10 -7 10 -15z m-12250 -69 c0 -2 -7 -9 -15 -16 -13 -11 -14
-10 -9 4 5 14 24 23 24 12z m13 -81 c-5 -13 -23 -22 -23 -11 0 15 14 35 21 31
4 -3 6 -12 2 -20z m11177 15 c0 -5 -5 -10 -11 -10 -5 0 -7 5 -4 10 3 6 8 10
11 10 2 0 4 -4 4 -10z m180 1 c0 -12 -20 -25 -27 -18 -7 7 6 27 18 27 5 0 9
-4 9 -9z m-140 -10 c0 -21 -13 -41 -26 -41 -17 0 -18 22 -2 38 14 14 28 16 28
3z m-3531 -33 c20 -34 10 -44 -28 -28 -37 15 -55 35 -46 50 12 20 59 6 74 -22z
m-7724 -44 c-17 -34 -20 -18 -4 23 6 15 13 23 15 17 3 -6 -2 -24 -11 -40z
m11153 23 c5 -23 -10 -21 -26 4 -12 18 -11 20 5 17 10 -2 19 -11 21 -21z
m-4051 -44 c3 -8 -13 -12 -53 -12 -55 0 -64 13 -14 22 38 7 63 3 67 -10z
m4710 -5 c19 27 29 28 36 2 3 -11 12 -20 21 -20 27 0 18 -26 -24 -69 -22 -22
-40 -44 -40 -47 0 -10 -103 -114 -113 -114 -4 0 -4 8 2 17 7 13 4 28 -11 55
-11 20 -18 43 -15 52 9 23 26 20 20 -3 -3 -10 0 -22 7 -26 16 -10 40 14 40 41
0 27 11 30 40 12 25 -16 28 -11 22 35 -4 33 -7 37 -33 37 -32 0 -34 2 -18 33
l12 21 20 -25 19 -24 15 23z m-11857 -88 c-16 -31 -23 -19 -9 16 6 16 13 24
16 17 2 -7 -1 -22 -7 -33z m-34 -71 c-8 -21 -15 -27 -15 -16 -1 17 20 59 27
53 1 -2 -4 -19 -12 -37z m11080 20 c13 -14 13 -18 0 -29 -21 -16 -76 7 -76 33
0 23 54 20 76 -4z m914 -48 c0 -23 -36 -69 -46 -59 -8 9 26 78 38 78 5 0 8 -9
8 -19z m-272 -18 c-2 -16 -10 -29 -20 -31 -15 -3 -15 1 -5 27 14 38 29 40 25
4z m-9396 -38 c15 -33 -2 -55 -27 -35 -23 19 -18 60 7 60 5 0 14 -11 20 -25z
m-2920 -22 c28 -30 47 -43 61 -43 8 0 34 -26 58 -57 24 -32 47 -60 50 -63 7
-6 18 -37 24 -71 6 -29 14 -36 24 -20 6 9 12 2 21 -25 17 -52 38 -74 70 -74
17 0 31 -7 35 -17 6 -16 8 -15 17 7 9 24 10 24 24 6 12 -17 14 -18 14 -3 0 9
5 17 10 17 6 0 10 8 10 18 1 9 7 31 15 47 l15 30 -6 -39 c-3 -21 -9 -46 -14
-55 -16 -29 -147 -491 -195 -686 -76 -313 -112 -481 -174 -820 -52 -285 -88
-511 -96 -605 -12 -146 -69 -579 -84 -643 -11 -47 -17 -54 -25 -29 -5 15 -14
19 -39 17 -18 -2 -32 -4 -32 -5 0 -1 -10 -3 -23 -4 -34 -4 -46 -20 -33 -44 11
-20 6 -32 -14 -32 -18 0 -57 131 -115 390 -17 74 -35 153 -40 175 -5 22 -37
164 -70 315 -71 320 -104 455 -172 710 -52 193 -124 441 -138 475 -5 11 -15
40 -23 65 -8 25 -18 53 -22 63 -4 10 -3 17 4 17 6 0 11 -8 11 -17 0 -9 6 -24
13 -32 8 -9 19 -35 26 -58 6 -24 16 -43 20 -43 8 0 19 -38 23 -80 1 -8 7 -20
14 -27 10 -10 13 -9 19 5 3 9 1 18 -4 20 -15 5 -14 42 0 42 6 0 9 -7 5 -15 -3
-8 -1 -15 4 -15 6 0 10 -12 10 -26 0 -15 4 -23 10 -19 6 4 20 -16 33 -44 12
-28 28 -53 35 -56 7 -2 10 -1 7 4 -9 15 15 24 30 11 7 -6 16 -7 19 -2 9 15 55
2 49 -14 -2 -7 5 -23 17 -36 20 -21 22 -21 16 -3 -10 36 7 48 58 43 48 -6 71
-17 49 -25 -7 -3 -13 -11 -13 -19 0 -11 4 -12 19 -5 10 6 21 8 24 5 3 -3 15 0
27 6 14 8 26 8 32 2 5 -5 18 -8 28 -5 19 5 22 36 6 61 -4 7 -2 19 4 27 6 8 9
19 5 25 -3 5 -2 10 4 10 5 0 11 -6 14 -12 2 -7 3 -5 2 4 -2 10 1 21 6 24 12 7
11 54 -1 54 -5 0 -10 11 -10 25 0 16 6 25 15 25 8 0 15 7 15 16 0 13 7 15 32
12 l32 -5 -27 23 c-30 26 -33 34 -13 34 19 0 28 63 10 73 -18 10 -18 37 0 37
7 0 16 9 19 20 3 13 0 20 -9 20 -16 0 -16 5 -8 38 5 18 9 20 20 11 8 -7 16
-10 18 -8 7 9 -7 78 -15 73 -5 -3 -9 13 -9 35 0 42 -7 50 -27 30 -8 -8 -11 -5
-12 12 0 39 -7 85 -14 95 -3 6 -2 16 3 24 5 9 5 19 -1 27 -7 8 -6 19 2 35 17
30 18 90 2 84 -14 -6 -7 17 15 51 7 12 11 27 8 32 -7 11 24 81 36 81 4 0 8 7
8 16 0 8 4 13 10 9 5 -3 8 7 5 25 -2 17 0 28 6 25 5 -4 9 0 9 8 0 8 7 18 16
21 12 5 15 14 11 34 -3 15 -2 34 4 42 7 13 9 13 9 1 0 -23 13 -3 16 24 1 14
-2 23 -7 20 -15 -10 -10 1 16 31 14 16 25 35 25 42 0 17 13 15 32 -5z m550 -5
c-7 -7 -12 -8 -12 -2 0 14 12 26 19 19 2 -3 -1 -11 -7 -17z m11806 -38 c22
-29 14 -52 -11 -32 -7 5 -19 11 -28 13 -13 3 -15 9 -8 27 11 29 19 27 47 -8z
m-9521 -174 c-26 -25 -47 -49 -47 -55 0 -14 -28 -21 -51 -12 -21 7 -21 8 10
43 17 20 31 41 31 48 0 7 17 28 37 47 l38 34 14 -30 c14 -29 13 -31 -32 -75z
m9473 51 c0 -18 -45 -41 -64 -34 -23 9 -20 26 7 37 33 13 57 12 57 -3z m137
-59 c-5 -34 -18 -73 -28 -87 -10 -13 -19 -31 -19 -40 0 -10 -6 -23 -12 -30 -7
-6 -13 -29 -13 -49 0 -31 -4 -38 -22 -40 -20 -3 -22 0 -20 40 2 26 19 75 42
123 39 80 75 145 79 145 2 0 -1 -28 -7 -62z m-11967 30 c0 -7 -5 -20 -10 -28
-8 -12 -10 -9 -10 13 0 15 5 27 10 27 6 0 10 -6 10 -12z m187 -20 c-3 -8 -6
-5 -6 6 -1 11 2 17 5 13 3 -3 4 -12 1 -19z m11512 -12 c7 -8 9 -25 5 -41 -5
-21 -2 -31 14 -44 20 -15 20 -17 4 -51 -20 -40 -38 -38 -34 3 1 15 -2 27 -8
27 -13 0 -13 47 1 55 7 5 3 15 -10 29 -21 22 -19 36 4 36 7 0 18 -6 24 -14z
m-11540 -60 c-9 -8 -10 -7 -5 7 3 10 7 24 7 30 1 7 3 4 6 -7 3 -10 -1 -23 -8
-30z m11228 -11 c3 -9 3 -19 -1 -22 -7 -8 -56 17 -56 29 0 15 50 8 57 -7z
m-11463 -23 c3 -5 -1 -9 -9 -9 -8 0 -15 4 -15 9 0 4 4 8 9 8 6 0 12 -4 15 -8z
m11373 -38 c-9 -9 -28 6 -21 18 4 6 10 6 17 -1 6 -6 8 -13 4 -17z m-74 -34 c3
-11 1 -18 -4 -14 -5 3 -9 12 -9 20 0 20 7 17 13 -6z m397 10 c0 -5 -4 -10 -10
-10 -5 0 -10 5 -10 10 0 6 5 10 10 10 6 0 10 -4 10 -10z m-363 -56 c-3 -3 -12
-4 -19 -1 -8 3 -5 6 6 6 11 1 17 -2 13 -5z m343 -14 c0 -5 -7 -10 -16 -10 -8
0 -12 5 -9 10 3 6 10 10 16 10 5 0 9 -4 9 -10z m-1112 -12 c16 -16 15 -28 -3
-28 -8 0 -15 2 -15 4 0 2 -3 11 -6 20 -7 19 7 21 24 4z m697 -118 c-3 -5 -10
-10 -16 -10 -5 0 -9 5 -9 10 0 6 7 10 16 10 8 0 12 -4 9 -10z m-1675 -80 c0
-5 -9 -14 -21 -20 -16 -9 -19 -17 -14 -40 5 -23 2 -30 -14 -35 -11 -3 -29 -18
-40 -31 -14 -18 -33 -28 -63 -31 l-43 -6 19 22 c11 11 30 21 43 21 13 0 26 8
30 18 8 20 85 111 96 112 4 0 7 -4 7 -10z m22 -55 c6 -28 -3 -38 -26 -29 -12
5 -13 10 -4 30 14 31 24 30 30 -1z m98 -41 c0 -8 -7 -14 -15 -14 -15 0 -21 21
-9 33 10 9 24 -2 24 -19z m-10300 -34 c0 -5 -7 -10 -15 -10 -8 0 -15 5 -15 10
0 6 7 10 15 10 8 0 15 -4 15 -10z m10260 -26 c0 -8 -5 -12 -10 -9 -6 4 -8 11
-5 16 9 14 15 11 15 -7z m1130 -40 c0 -8 -5 -12 -10 -9 -6 4 -8 11 -5 16 9 14
15 11 15 -7z m-25 -74 c3 -5 1 -10 -4 -10 -6 0 -11 5 -11 10 0 6 2 10 4 10 3
0 8 -4 11 -10z m-12120 -100 c24 -46 75 -209 105 -333 36 -155 73 -384 105
-657 30 -257 88 -687 115 -860 11 -69 20 -150 20 -180 0 -53 0 -54 -16 -31 -9
12 -39 68 -66 124 -47 94 -166 295 -224 377 -102 143 -478 576 -650 748 -41
40 -73 76 -72 80 4 15 -15 58 -36 81 l-21 24 25 -6 c34 -8 60 8 28 17 l-23 7
22 11 c18 9 21 16 16 36 -4 19 -3 23 7 17 9 -5 11 -4 6 3 -4 7 4 24 18 39 26
28 33 44 19 42 -19 -3 -36 2 -29 8 10 10 46 11 46 1 0 -5 4 -7 9 -3 6 3 4 16
-4 31 -7 15 -11 36 -8 48 8 34 9 135 1 129 -5 -2 -8 3 -8 11 0 8 4 17 9 21 6
3 7 28 4 55 -4 33 -2 55 7 65 9 10 9 19 2 28 -12 14 -4 67 9 67 5 0 9 -6 9
-12 0 -7 11 -14 24 -14 17 -1 26 5 30 20 6 19 7 19 16 4 6 -9 28 -27 50 -39
43 -24 49 -36 25 -45 -18 -7 -20 -25 -2 -21 6 1 11 -4 10 -10 -2 -7 2 -13 7
-13 6 0 10 -7 10 -15 0 -8 5 -15 10 -15 6 0 10 5 10 10 0 6 7 10 15 10 18 0
20 16 3 23 -8 4 -4 8 10 12 21 7 27 17 23 40 -1 6 6 2 16 -8 15 -15 16 -19 3
-27 -8 -5 -11 -12 -6 -17 4 -4 12 0 17 10 6 9 14 15 20 12 5 -4 9 -2 9 4 0 6
10 15 21 22 17 9 20 8 14 -2 -6 -9 -3 -10 11 -4 10 4 30 8 43 8 15 -1 25 6 28
17 3 12 11 16 20 13 8 -3 18 0 23 6 5 9 11 8 24 -4 15 -15 16 -15 16 10 0 34
24 28 27 -6 0 -13 1 -30 2 -36 1 -7 4 -13 9 -13 4 0 8 25 9 55 1 30 -2 55 -6
55 -4 0 -5 15 -2 33 l5 32 9 -35 c5 -19 15 -46 22 -60z m12085 30 c0 -11 -4
-20 -10 -20 -5 0 -10 9 -10 20 0 11 5 20 10 20 6 0 10 -9 10 -20z m-12226 -35
c3 -9 0 -15 -8 -15 -8 0 -16 7 -20 15 -3 9 0 15 8 15 8 0 16 -7 20 -15z
m12846 -61 c0 -8 -7 -14 -15 -14 -8 0 -15 9 -15 20 0 13 5 18 15 14 8 -4 15
-12 15 -20z m160 -81 c0 -10 3 -28 6 -40 5 -17 2 -23 -10 -23 -20 0 -21 -18
-1 -40 10 -11 13 -27 8 -54 -6 -38 -6 -38 -18 -15 -21 39 -29 126 -15 159 14
33 30 40 30 13z m-12558 -77 c-2 -10 7 -20 23 -26 32 -12 32 -30 0 -30 -14 0
-25 5 -25 12 0 6 -7 19 -16 29 -9 10 -13 23 -9 29 10 16 31 6 27 -14z m368 14
c0 -5 -2 -10 -4 -10 -3 0 -8 5 -11 10 -3 6 -1 10 4 10 6 0 11 -4 11 -10z
m-233 -56 c-3 -3 -12 -4 -19 -1 -8 3 -5 6 6 6 11 1 17 -2 13 -5z m153 -4 c0
-5 -4 -10 -10 -10 -5 0 -10 5 -10 10 0 6 5 10 10 10 6 0 10 -4 10 -10z m-120
-20 c0 -5 -4 -10 -10 -10 -5 0 -10 5 -10 10 0 6 5 10 10 10 6 0 10 -4 10 -10z
m12449 -146 c27 -35 26 -57 -3 -91 l-24 -28 -10 26 c-6 15 -18 29 -26 32 -21
8 -20 32 2 62 22 31 36 31 61 -1z m-13819 -230 c0 -8 -4 -12 -10 -9 -5 3 -10
10 -10 16 0 5 5 9 10 9 6 0 10 -7 10 -16z m139 -100 c93 -87 187 -204 257
-319 27 -44 53 -82 58 -84 4 -2 2 -7 -5 -12 -11 -7 -10 -9 4 -9 9 0 17 -4 17
-8 0 -11 59 -100 82 -126 10 -11 18 -23 18 -27 0 -3 49 -85 109 -180 212 -337
253 -409 275 -489 l7 -25 -25 28 c-14 15 -28 27 -31 27 -9 0 -5 -47 11 -120
l17 -73 -23 -19 c-12 -10 -26 -18 -31 -18 -17 0 -87 70 -99 100 -7 17 -16 30
-21 30 -5 0 -9 7 -9 15 0 37 -62 -3 -84 -55 -7 -17 -16 -31 -19 -31 -27 3 -37
-1 -37 -15 0 -8 -4 -13 -9 -9 -12 7 -83 -25 -94 -42 -11 -17 -20 -16 -71 8
-54 25 -54 55 1 65 22 4 32 11 29 19 -3 8 7 25 20 39 28 27 23 51 -8 43 -22
-6 -38 21 -18 33 9 6 10 13 2 26 -10 18 -11 17 -21 -6 -9 -24 -10 -24 -10 -2
-1 12 -5 22 -11 22 -5 0 -10 9 -10 20 0 11 -4 20 -10 20 -17 0 -11 47 6 54 13
5 15 15 10 51 -7 41 -5 45 13 45 12 0 21 4 21 9 0 13 -79 4 -97 -11 -13 -10
-17 -10 -20 0 -3 6 -8 10 -12 7 -5 -2 -6 6 -4 18 3 13 -2 29 -11 36 -13 11
-12 15 6 33 11 11 22 17 25 14 3 -3 12 1 19 9 8 7 19 15 26 18 9 3 7 9 -7 21
-24 18 -7 21 30 4 29 -13 31 -21 9 -39 -10 -8 -14 -23 -12 -41 3 -15 1 -28 -4
-28 -4 0 -8 -5 -8 -11 0 -7 9 -9 24 -5 14 3 28 1 35 -7 11 -14 61 -15 81 -2 8
5 11 23 7 51 -3 34 0 47 14 60 20 18 26 44 10 44 -5 0 -18 -8 -27 -17 -16 -16
-17 -16 -12 -1 4 10 1 19 -7 22 -8 3 -12 12 -9 21 4 9 1 15 -9 15 -8 0 -17 -5
-19 -11 -2 -5 -11 -7 -21 -3 -14 5 -17 14 -14 42 3 19 11 39 19 43 10 7 9 9
-5 9 -13 0 -17 5 -13 18 4 11 -1 23 -13 31 -15 11 -18 22 -14 52 5 35 3 39
-15 39 -15 0 -24 8 -28 28 -9 34 -35 71 -51 72 -7 0 -15 11 -19 24 -3 15 -11
23 -19 20 -16 -6 -29 26 -16 39 7 7 0 18 -23 33 -27 19 -33 28 -29 51 3 21 2
24 -6 13 -8 -12 -12 -9 -20 13 -6 16 -11 46 -11 67 0 54 -9 74 -26 59 -8 -7
-18 -9 -22 -5 -4 4 1 12 11 17 21 12 22 23 1 43 -8 9 -13 16 -9 16 3 0 -3 14
-15 30 -19 27 -27 45 -29 73 -1 5 -5 5 -11 2 -5 -3 -10 0 -10 8 0 8 -11 23
-25 33 -14 10 -25 25 -25 32 0 21 30 0 119 -84z m42 58 c-13 -4 -42 23 -34 32
4 3 15 -2 25 -11 11 -10 15 -19 9 -21z m-172 -97 c12 -36 12 -41 -4 -50 -9 -5
-36 -29 -59 -52 -52 -54 -76 -56 -76 -8 0 19 4 35 9 35 5 0 8 11 5 24 -2 14 4
34 17 50 11 14 17 31 13 37 -4 8 7 10 37 7 41 -3 45 -6 58 -43z m13901 -206
c0 -19 -5 -29 -14 -29 -21 0 -29 17 -22 45 9 34 36 21 36 -16z m-13780 -681
c0 6 9 12 21 12 18 0 20 -4 14 -30 -4 -17 -3 -29 2 -28 4 2 19 -5 33 -15 18
-12 20 -17 8 -17 -9 0 -19 6 -21 13 -3 7 -6 5 -6 -5 -1 -24 -13 -23 -29 2 -7
11 -17 20 -24 20 -7 0 -3 -7 8 -15 18 -14 17 -14 -12 -15 -26 0 -30 4 -29 23
1 12 -3 25 -9 29 -7 5 -4 12 9 22 15 11 22 11 27 3 6 -9 8 -9 8 1z m170 -75
c0 -16 -28 -43 -46 -43 -23 0 -17 46 9 63 22 15 36 7 37 -20z m-150 -39 c0 -8
-4 -12 -10 -9 -5 3 -10 10 -10 16 0 5 5 9 10 9 6 0 10 -7 10 -16z m260 -194
c0 -5 -2 -10 -4 -10 -3 0 -8 5 -11 10 -3 6 -1 10 4 10 6 0 11 -4 11 -10z
m1206 -223 c2 -13 -2 -15 -15 -7 -12 6 -22 5 -29 -2 -9 -9 -12 -8 -12 4 0 29
52 34 56 5z m-900 -59 c11 -22 13 -33 5 -36 -6 -2 -11 -10 -11 -18 0 -8 -2
-14 -4 -14 -2 0 -11 -3 -20 -6 -9 -4 -20 4 -29 23 -13 25 -13 32 -1 56 19 36
40 34 60 -5z m18969 -246 c-4 -26 -13 -77 -21 -114 -7 -36 -11 -80 -8 -97 6
-30 5 -31 -28 -31 -40 0 -58 15 -58 47 0 24 75 220 92 240 19 23 29 2 23 -45z
m-16318 -190 c18 -13 39 -37 48 -53 8 -16 22 -43 31 -60 12 -22 13 -34 6 -41
-8 -8 -22 1 -50 31 -34 36 -45 42 -86 44 -62 4 -76 19 -50 54 11 16 23 36 27
45 7 21 27 16 74 -20z m12423 -793 c0 -5 -4 -9 -10 -9 -5 0 -10 7 -10 16 0 8
5 12 10 9 6 -3 10 -10 10 -16z m1286 -68 c-3 -18 -6 -34 -8 -35 -29 -20 -110
-66 -117 -66 -4 0 -16 9 -26 20 -16 18 -16 22 -2 42 24 37 91 105 107 111 26
9 53 -33 46 -72z m-3964 -26 c8 -19 8 -28 -2 -40 -16 -19 -74 -19 -90 0 -11
13 -9 20 10 40 31 33 67 33 82 0z m107 -155 c5 -8 11 -29 14 -47 5 -25 3 -31
-8 -27 -7 3 -18 -3 -24 -14 -21 -39 -65 -38 -75 2 -4 16 -25 32 -66 52 -80 38
-64 52 61 50 69 -1 92 -4 98 -16z m2781 -2 c-1 -26 -22 -58 -39 -58 -17 0 -13
46 5 64 22 22 34 20 34 -6z m230 8 c0 -11 -19 -15 -25 -6 -3 5 1 10 9 10 9 0
16 -2 16 -4z m-10 -92 c0 -17 -40 -84 -50 -84 -4 0 -13 7 -20 15 -10 12 -10
21 -1 41 6 14 11 33 11 42 0 10 7 28 16 41 l17 23 13 -32 c8 -18 14 -38 14
-46z m-1515 6 c0 -23 -49 -20 -53 3 -3 15 2 18 25 15 17 -2 28 -9 28 -18z
m1265 0 c0 -5 -4 -10 -10 -10 -5 0 -10 5 -10 10 0 6 5 10 10 10 6 0 10 -4 10
-10z m-2586 -49 c11 -16 -21 -31 -53 -25 -46 9 -40 34 8 34 22 0 42 -4 45 -9z
m895 -66 c1 -2 0 -8 -3 -14 -7 -11 -62 5 -72 21 -5 7 6 8 32 3 21 -4 41 -8 43
-10z m911 -1341 c58 -7 125 -18 150 -23 270 -55 400 -104 486 -183 29 -27 44
-49 44 -65 0 -28 -38 -63 -79 -76 -57 -17 -241 -18 -401 -3 -91 8 -203 18
-250 21 -47 3 -107 10 -135 15 -27 5 -93 17 -145 25 -122 20 -271 69 -304 100
-36 33 -34 73 5 113 17 18 49 36 70 42 21 5 58 15 82 21 110 29 312 35 477 13z"/>
<path d="M10975 14550 c-3 -5 1 -10 9 -10 9 0 16 5 16 10 0 6 -4 10 -9 10 -6
0 -13 -4 -16 -10z"/>
<path d="M10520 14445 c7 -9 15 -13 17 -11 7 7 -7 26 -19 26 -6 0 -6 -6 2 -15z"/>
<path d="M10560 14371 c0 -17 18 -21 24 -6 3 9 0 15 -9 15 -8 0 -15 -4 -15 -9z"/>
<path d="M10655 14197 c-4 -10 -5 -21 -1 -24 10 -10 18 4 13 24 -4 17 -4 17
-12 0z"/>
<path d="M10750 14104 c0 -9 5 -14 12 -12 18 6 21 28 4 28 -9 0 -16 -7 -16
-16z"/>
<path d="M10792 14079 c2 -7 10 -15 17 -17 8 -3 12 1 9 9 -2 7 -10 15 -17 17
-8 3 -12 -1 -9 -9z"/>
<path d="M10864 14044 c-18 -14 -18 -14 6 -3 31 14 36 19 24 19 -6 0 -19 -7
-30 -16z"/>
<path d="M10725 14001 c-3 -5 -1 -12 5 -16 5 -3 10 1 10 9 0 18 -6 21 -15 7z"/>
<path d="M11087 13732 c-26 -28 -22 -45 9 -38 18 5 32 2 45 -10 28 -25 34 -10
12 28 -23 39 -43 45 -66 20z"/>
<path d="M11320 13710 c8 -5 26 -10 40 -10 20 0 22 2 10 10 -8 5 -26 10 -40
10 -20 0 -22 -2 -10 -10z"/>
<path d="M11196 13671 c-4 -5 -4 -16 -1 -23 3 -8 -1 -21 -10 -28 -8 -7 -15
-17 -15 -22 0 -6 7 -5 15 2 9 7 27 10 45 6 37 -7 40 11 5 24 -22 8 -24 13 -15
30 8 16 8 20 -4 20 -8 0 -17 -4 -20 -9z"/>
<path d="M11492 13620 c-10 -16 -10 -20 0 -20 22 0 41 17 34 29 -10 16 -20 14
-34 -9z"/>
<path d="M11320 13616 c0 -9 5 -16 10 -16 6 0 10 4 10 9 0 6 -4 13 -10 16 -5
3 -10 -1 -10 -9z"/>
<path d="M11165 13510 c3 -5 8 -10 11 -10 2 0 4 5 4 10 0 6 -5 10 -11 10 -5 0
-7 -4 -4 -10z"/>
<path d="M11160 13450 c0 -5 17 -10 38 -9 33 1 34 2 12 9 -36 11 -50 11 -50 0z"/>
<path d="M11055 13171 c-6 -10 33 -36 41 -28 3 2 2 12 -2 21 -7 18 -29 22 -39
7z"/>
<path d="M11110 13127 c0 -1 11 -24 25 -52 15 -32 24 -43 25 -29 0 26 -22 72
-37 79 -7 2 -13 3 -13 2z"/>
<path d="M11190 12890 c0 -5 7 -10 15 -10 8 0 15 5 15 10 0 6 -7 10 -15 10 -8
0 -15 -4 -15 -10z"/>
<path d="M10743 12792 c-21 -3 -32 -20 -15 -23 32 -5 56 -2 59 7 5 14 -15 21
-44 16z"/>
<path d="M10790 12749 c0 -5 9 -9 20 -9 11 0 20 2 20 4 0 2 -9 6 -20 9 -11 3
-20 1 -20 -4z"/>
<path d="M11960 12450 c0 -5 5 -10 10 -10 6 0 10 5 10 10 0 6 -4 10 -10 10 -5
0 -10 -4 -10 -10z"/>
<path d="M11981 12384 c0 -11 3 -14 6 -6 3 7 2 16 -1 19 -3 4 -6 -2 -5 -13z"/>
<path d="M12058 12363 c6 -2 18 -2 25 0 6 3 1 5 -13 5 -14 0 -19 -2 -12 -5z"/>
<path d="M12340 12310 c0 -5 7 -10 15 -10 8 0 15 5 15 10 0 6 -7 10 -15 10 -8
0 -15 -4 -15 -10z"/>
<path d="M12330 12075 c0 -8 7 -15 15 -15 8 0 15 7 15 15 0 8 -7 15 -15 15 -8
0 -15 -7 -15 -15z"/>
<path d="M12480 12040 c0 -5 5 -10 11 -10 5 0 7 5 4 10 -3 6 -8 10 -11 10 -2
0 -4 -4 -4 -10z"/>
<path d="M12596 12031 c-4 -7 -5 -15 -2 -18 9 -9 19 4 14 18 -4 11 -6 11 -12
0z"/>
<path d="M9970 12629 c0 -5 5 -7 10 -4 6 3 10 8 10 11 0 2 -4 4 -10 4 -5 0
-10 -5 -10 -11z"/>
<path d="M10025 12629 c-4 -6 -5 -13 -2 -16 7 -7 27 6 27 18 0 12 -17 12 -25
-2z"/>
<path d="M12730 11630 c0 -5 5 -10 10 -10 6 0 10 5 10 10 0 6 -4 10 -10 10 -5
0 -10 -4 -10 -10z"/>
<path d="M4246 10038 c3 -5 10 -6 15 -3 13 9 11 12 -6 12 -8 0 -12 -4 -9 -9z"/>
<path d="M4256 9905 c4 -8 10 -12 15 -9 14 8 10 24 -6 24 -9 0 -12 -6 -9 -15z"/>
<path d="M3825 9060 c-9 -15 4 -30 20 -23 8 3 15 9 15 13 0 12 -29 20 -35 10z"/>
<path d="M3735 8890 c-3 -5 -1 -10 4 -10 6 0 11 5 11 10 0 6 -2 10 -4 10 -3 0
-8 -4 -11 -10z"/>
<path d="M3050 8110 c0 -5 5 -10 11 -10 5 0 7 5 4 10 -3 6 -8 10 -11 10 -2 0
-4 -4 -4 -10z"/>
<path d="M2721 7850 c0 -29 1 -32 10 -17 7 11 7 23 0 35 -9 14 -10 11 -10 -18z"/>
<path d="M13040 9941 c-8 -6 -18 -7 -22 -5 -4 3 -16 0 -25 -5 -14 -8 -15 -10
-3 -11 8 0 25 -3 37 -6 15 -4 24 0 32 15 12 22 5 27 -19 12z"/>
<path d="M12920 9900 c0 -5 4 -10 9 -10 6 0 13 5 16 10 3 6 -1 10 -9 10 -9 0
-16 -4 -16 -10z"/>
<path d="M13120 9875 c30 -32 22 -40 -18 -19 -34 16 -83 16 -89 -1 -3 -11 77
-55 101 -55 7 0 22 11 35 24 19 20 20 27 10 50 -9 18 -20 26 -37 26 l-25 0 23
-25z"/>
<path d="M13813 10105 c-5 -16 22 -55 39 -55 12 0 10 44 -4 58 -16 16 -27 15
-35 -3z"/>
<path d="M13875 9966 c-14 -10 -17 -18 -9 -26 12 -13 89 9 89 25 0 16 -58 17
-80 1z"/>
<path d="M14185 9851 c-3 -5 -1 -12 5 -16 5 -3 10 1 10 9 0 18 -6 21 -15 7z"/>
<path d="M13947 9809 c4 -13 9 -17 15 -11 11 11 3 32 -12 32 -4 0 -6 -9 -3
-21z"/>
<path d="M14115 9731 c-10 -17 12 -21 25 -6 10 12 10 15 -3 15 -9 0 -18 -4
-22 -9z"/>
<path d="M2457 7820 c-3 -11 -1 -20 4 -20 5 0 9 9 9 20 0 11 -2 20 -4 20 -2 0
-6 -9 -9 -20z"/>
<path d="M1950 7390 c0 -5 5 -10 10 -10 6 0 10 5 10 10 0 6 -4 10 -10 10 -5 0
-10 -4 -10 -10z"/>
<path d="M1970 7356 c0 -9 5 -16 10 -16 6 0 10 4 10 9 0 6 -4 13 -10 16 -5 3
-10 -1 -10 -9z"/>
<path d="M2010 7310 c0 -5 5 -10 11 -10 5 0 7 5 4 10 -3 6 -8 10 -11 10 -2 0
-4 -4 -4 -10z"/>
<path d="M1927 7263 c-2 -5 -1 -21 2 -37 5 -24 8 -27 18 -15 7 8 10 25 6 37
-5 22 -18 29 -26 15z"/>
<path d="M1985 7171 c-3 -5 -1 -12 5 -16 5 -3 10 1 10 9 0 18 -6 21 -15 7z"/>
<path d="M1890 7046 c0 -2 7 -6 15 -10 8 -3 15 -1 15 4 0 6 -7 10 -15 10 -8 0
-15 -2 -15 -4z"/>
<path d="M1355 6920 c3 -5 8 -10 11 -10 2 0 4 5 4 10 0 6 -5 10 -11 10 -5 0
-7 -4 -4 -10z"/>
<path d="M1804 6815 c-10 -26 1 -35 13 -10 6 14 7 25 2 25 -5 0 -12 -7 -15
-15z"/>
<path d="M1760 6790 c0 -5 5 -10 10 -10 6 0 10 5 10 10 0 6 -4 10 -10 10 -5 0
-10 -4 -10 -10z"/>
<path d="M749 7018 c-9 -30 -6 -37 12 -28 23 13 25 30 4 30 -8 0 -15 -1 -16
-2z"/>
<path d="M486 6446 c3 -9 11 -16 16 -16 13 0 5 23 -10 28 -7 2 -10 -2 -6 -12z"/>
<path d="M725 5400 c-3 -5 1 -10 9 -10 9 0 16 5 16 10 0 6 -4 10 -9 10 -6 0
-13 -4 -16 -10z"/>
<path d="M9420 17330 c0 -5 5 -10 10 -10 6 0 10 5 10 10 0 6 -4 10 -10 10 -5
0 -10 -4 -10 -10z"/>
<path d="M11120 15832 c0 -4 6 -16 13 -26 13 -17 14 -17 29 6 15 23 15 24 -13
26 -16 1 -29 -1 -29 -6z"/>
<path d="M11366 15385 c4 -8 11 -15 16 -15 6 0 5 6 -2 15 -7 8 -14 15 -16 15
-2 0 -1 -7 2 -15z"/>
<path d="M11282 15224 c-18 -15 -32 -35 -32 -45 0 -24 19 -25 27 -1 3 9 15 29
25 45 24 34 20 34 -20 1z"/>
<path d="M11865 15000 c-10 -11 -25 -20 -34 -21 -9 0 -11 -3 -4 -5 16 -7 75
25 68 36 -8 13 -9 13 -30 -10z"/>
<path d="M11668 14906 c-28 -21 -21 -26 12 -10 17 9 30 17 30 20 0 9 -26 3
-42 -10z"/>
<path d="M14220 14470 c0 -5 5 -10 10 -10 6 0 10 5 10 10 0 6 -4 10 -10 10 -5
0 -10 -4 -10 -10z"/>
<path d="M14220 14425 c0 -8 7 -15 16 -15 14 0 14 3 4 15 -7 8 -14 15 -16 15
-2 0 -4 -7 -4 -15z"/>
<path d="M14241 14393 c-1 -18 10 -43 20 -43 5 0 9 12 9 28 0 19 -3 23 -9 13
-7 -11 -9 -11 -14 0 -3 9 -6 9 -6 2z"/>
<path d="M14260 14332 c0 -8 8 -16 18 -19 13 -3 17 -14 17 -43 0 -22 6 -45 12
-51 9 -9 11 2 10 42 -2 45 -6 54 -22 58 -11 2 -23 8 -27 15 -5 8 -8 7 -8 -2z"/>
<path d="M14770 13686 c0 -2 7 -7 16 -10 8 -3 12 -2 9 4 -6 10 -25 14 -25 6z"/>
<path d="M14770 13640 c0 -5 5 -10 10 -10 6 0 10 5 10 10 0 6 -4 10 -10 10 -5
0 -10 -4 -10 -10z"/>
<path d="M14860 13456 c0 -9 5 -16 10 -16 6 0 10 4 10 9 0 6 -4 13 -10 16 -5
3 -10 -1 -10 -9z"/>
<path d="M15002 13236 c7 -8 15 -12 17 -11 5 6 -10 25 -20 25 -5 0 -4 -6 3
-14z"/>
<path d="M15080 12960 c0 -5 5 -10 11 -10 5 0 7 5 4 10 -3 6 -8 10 -11 10 -2
0 -4 -4 -4 -10z"/>
<path d="M14191 12784 c0 -11 3 -14 6 -6 3 7 2 16 -1 19 -3 4 -6 -2 -5 -13z"/>
<path d="M13530 12746 c0 -2 7 -6 15 -10 8 -3 15 -1 15 4 0 6 -7 10 -15 10 -8
0 -15 -2 -15 -4z"/>
<path d="M13930 12483 c0 -9 58 -66 95 -94 18 -13 18 -13 5 7 -21 29 -100 98
-100 87z"/>
<path d="M14535 12328 c-4 -22 -3 -51 4 -69 6 -18 11 -48 11 -69 0 -20 7 -45
16 -56 14 -18 15 -17 10 21 -4 22 -8 65 -11 95 -2 30 -8 69 -13 85 l-9 30 -8
-37z"/>
<path d="M14280 12270 c0 -8 5 -22 10 -30 9 -13 10 -13 10 0 0 8 -5 22 -10 30
-9 13 -10 13 -10 0z"/>
<path d="M13400 12165 c0 -6 8 -33 19 -61 10 -28 21 -67 25 -87 7 -39 26 -60
26 -29 0 36 -68 209 -70 177z"/>
<path d="M15261 12124 c0 -11 3 -14 6 -6 3 7 2 16 -1 19 -3 4 -6 -2 -5 -13z"/>
<path d="M14766 11980 c10 -66 26 -97 19 -37 -2 27 -9 56 -15 65 -7 12 -8 4
-4 -28z"/>
<path d="M14682 11925 c0 -16 2 -22 5 -12 2 9 2 23 0 30 -3 6 -5 -1 -5 -18z"/>
<path d="M13440 11895 c0 -24 5 -35 15 -35 15 0 20 26 9 54 -11 28 -24 17 -24
-19z"/>
<path d="M14444 11776 c-3 -9 -3 -33 0 -54 4 -20 9 -54 13 -75 3 -21 12 -41
20 -44 19 -7 28 4 16 19 -6 7 -14 46 -18 86 -7 71 -19 98 -31 68z"/>
<path d="M14950 11688 c0 -29 6 -50 16 -59 14 -12 15 -8 9 37 -10 66 -25 80
-25 22z"/>
<path d="M15048 11579 c-4 -37 -11 -57 -26 -68 -22 -17 -24 -14 25 -75 19 -24
30 -28 90 -32 37 -2 74 0 81 4 16 10 24 80 11 88 -5 3 -9 14 -9 24 0 16 -5 18
-36 13 -28 -5 -39 -2 -46 10 -5 10 -15 17 -23 17 -7 0 -23 16 -35 35 -12 19
-23 35 -25 35 -1 0 -5 -23 -7 -51z m92 -100 c0 -5 -4 -9 -10 -9 -5 0 -10 7
-10 16 0 8 5 12 10 9 6 -3 10 -10 10 -16z"/>
<path d="M14840 11606 c0 -8 5 -18 10 -21 6 -3 10 3 10 14 0 12 -4 21 -10 21
-5 0 -10 -6 -10 -14z"/>
<path d="M15588 11349 c-23 -25 -23 -28 2 -22 12 3 18 8 15 11 -2 3 0 11 6 19
18 20 -4 14 -23 -8z"/>
<path d="M15126 11281 c-32 -35 -18 -50 29 -29 30 13 32 24 6 37 -14 8 -22 6
-35 -8z"/>
<path d="M14166 11168 c-41 -105 -46 -126 -35 -155 12 -31 5 -40 -16 -23 -20
16 -19 0 1 -29 14 -19 15 -29 5 -61 -9 -31 -9 -46 2 -71 l13 -33 27 48 c27 49
35 82 17 71 -5 -3 -8 0 -5 7 4 11 35 286 35 309 0 28 -20 0 -44 -63z"/>
<path d="M13740 11180 c0 -5 5 -10 11 -10 5 0 7 5 4 10 -3 6 -8 10 -11 10 -2
0 -4 -4 -4 -10z"/>
<path d="M14080 11029 c0 -5 5 -7 10 -4 6 3 10 8 10 11 0 2 -4 4 -10 4 -5 0
-10 -5 -10 -11z"/>
<path d="M15930 10829 c0 -5 5 -7 10 -4 6 3 10 8 10 11 0 2 -4 4 -10 4 -5 0
-10 -5 -10 -11z"/>
<path d="M14126 10771 c-4 -5 -2 -12 3 -15 5 -4 12 -2 15 3 4 5 2 12 -3 15 -5
4 -12 2 -15 -3z"/>
<path d="M13910 10750 c0 -19 3 -21 12 -12 9 9 9 15 0 24 -9 9 -12 7 -12 -12z"/>
<path d="M15272 10740 c-14 -24 -16 -50 -2 -50 5 0 7 -6 4 -14 -7 -17 12 -31
21 -15 4 6 2 16 -4 22 -14 14 -15 47 -1 47 6 0 10 7 10 15 0 21 -13 19 -28 -5z"/>
<path d="M15216 10723 c-12 -12 -6 -33 9 -33 8 0 15 6 15 14 0 17 -14 28 -24
19z"/>
<path d="M15164 10552 c-15 -44 -27 -79 -35 -97 -15 -37 -15 -59 3 -63 20 -4
44 31 53 78 4 19 9 47 12 61 6 31 -24 50 -33 21z"/>
<path d="M16369 10490 c24 -21 51 -26 51 -11 0 8 -53 32 -69 31 -3 -1 5 -10
18 -20z"/>
<path d="M15347 10475 c-9 -9 -15 -32 -15 -60 1 -30 -5 -52 -17 -65 -23 -25
-4 -27 36 -3 16 10 29 24 29 33 0 9 5 21 11 27 14 14 2 36 -16 29 -7 -2 -16 2
-19 10 -3 8 1 14 9 14 17 0 20 16 6 25 -5 3 -16 -2 -24 -10z"/>
<path d="M14220 10419 c0 -11 4 -18 10 -14 5 3 7 12 3 20 -7 21 -13 19 -13 -6z"/>
<path d="M16665 10360 c4 -6 11 -8 16 -5 14 9 11 15 -7 15 -8 0 -12 -5 -9 -10z"/>
<path d="M15002 10340 c0 -14 2 -19 5 -12 2 6 2 18 0 25 -3 6 -5 1 -5 -13z"/>
<path d="M15005 10207 c-4 -10 -5 -21 -1 -24 10 -10 18 4 13 24 -4 17 -4 17
-12 0z"/>
<path d="M17333 9983 c-20 -7 -15 -23 7 -23 11 0 20 4 20 9 0 13 -12 19 -27
14z"/>
<path d="M17547 9864 c-4 -4 -7 -14 -7 -23 0 -11 3 -12 11 -4 6 6 10 16 7 23
-2 6 -7 8 -11 4z"/>
<path d="M19055 8940 c-3 -5 -1 -10 4 -10 6 0 11 5 11 10 0 6 -2 10 -4 10 -3
0 -8 -4 -11 -10z"/>
<path d="M15055 8405 c-3 -8 -7 -22 -10 -30 -8 -26 15 -16 25 11 12 32 12 34
0 34 -6 0 -13 -7 -15 -15z"/>
<path d="M18086 5742 c-2 -4 -1 -14 5 -22 7 -12 9 -10 9 8 0 23 -5 28 -14 14z"/>
<path d="M18076 5683 c-6 -14 -5 -15 5 -6 7 7 10 15 7 18 -3 3 -9 -2 -12 -12z"/>
<path d="M13796 5635 c-3 -8 -1 -15 4 -15 6 0 10 7 10 15 0 8 -2 15 -4 15 -2
0 -6 -7 -10 -15z"/>
<path d="M13770 5600 c0 -5 5 -10 10 -10 6 0 10 5 10 10 0 6 -4 10 -10 10 -5
0 -10 -4 -10 -10z"/>
<path d="M17458 4616 c-19 -14 -23 -26 -10 -26 4 0 13 9 20 20 14 23 13 24
-10 6z"/>
<path d="M17364 4508 c-9 -18 -37 -61 -60 -95 -24 -35 -44 -71 -44 -80 0 -15
4 -13 20 7 10 14 25 36 32 50 7 14 24 41 39 60 54 73 63 90 45 90 -8 0 -23
-15 -32 -32z"/>
<path d="M18750 4349 c0 -20 4 -29 9 -23 15 15 17 47 4 51 -9 3 -13 -6 -13
-28z"/>
<path d="M16957 4093 c-10 -10 -8 -45 2 -39 11 7 21 46 12 46 -4 0 -11 -3 -14
-7z"/>
<path d="M12752 3838 c-24 -24 -14 -47 23 -54 55 -10 90 32 46 56 -26 13 -54
13 -69 -2z"/>
<path d="M13640 3615 c-14 -17 -5 -35 16 -35 9 0 22 -7 30 -15 22 -21 54 -19
54 3 0 23 -44 62 -69 62 -10 0 -24 -7 -31 -15z"/>
<path d="M13735 3491 c-3 -5 2 -11 10 -15 8 -3 17 -1 20 3 3 5 -2 11 -10 15
-8 3 -17 1 -20 -3z"/>
</g>
</svg>
