<?xml version="1.0" standalone="no"?>
<!DOCTYPE svg PUBLIC "-//W3C//DTD SVG 20010904//EN"
 "http://www.w3.org/TR/2001/REC-SVG-20010904/DTD/svg10.dtd">
<svg version="1.0" xmlns="http://www.w3.org/2000/svg"
 width="512.000000pt" height="512.000000pt" viewBox="0 0 512.000000 512.000000"
 preserveAspectRatio="xMidYMid meet">

<g transform="translate(0.000000,512.000000) scale(0.100000,-0.100000)"
fill="#000000" stroke="none">
<path d="M4767 5100 c-181 -64 -527 -228 -721 -341 l-89 -53 24 -15 c241 -157
543 -459 710 -711 15 -23 16 -23 68 66 73 125 239 464 302 619 47 114 53 139
53 200 0 78 -15 118 -68 173 -70 76 -175 99 -279 62z"/>
<path d="M3293 4232 c-146 -121 -444 -410 -571 -556 -311 -353 -526 -676 -741
-1113 l-115 -231 228 -236 228 -235 37 15 c73 31 479 243 571 299 250 152 501
335 729 534 244 212 671 670 671 720 0 11 -27 73 -59 138 -170 338 -465 613
-813 756 l-37 15 -128 -106z"/>
<path d="M1029 4176 c-330 -70 -559 -351 -559 -686 0 -324 211 -593 530 -676
85 -23 244 -23 330 -1 228 59 418 236 496 462 26 72 28 93 28 215 0 122 -2
143 -28 215 -64 185 -176 316 -346 404 -41 22 -102 46 -135 55 -85 23 -236 28
-316 12z"/>
<path d="M3060 1620 c-190 -30 -353 -148 -434 -314 -45 -93 -60 -162 -60 -266
1 -158 55 -284 173 -400 88 -87 149 -123 257 -150 141 -36 268 -23 403 42 284
136 400 483 259 774 -48 100 -159 210 -258 257 -114 53 -234 73 -340 57z m42
-236 c51 -17 108 -67 135 -117 12 -21 17 -56 18 -103 0 -61 -4 -77 -30 -119
-19 -31 -49 -61 -79 -80 -43 -26 -59 -30 -121 -30 -62 0 -78 4 -121 30 -135
84 -151 263 -33 369 71 63 145 80 231 50z"/>
</g>
</svg>
